<svg width="20" height="20" viewBox="0 0 20 20" fill="none" xmlns="http://www.w3.org/2000/svg">
<path fill-rule="evenodd" clip-rule="evenodd" d="M5.625 1.875C5.79076 1.875 5.94973 1.94085 6.06694 2.05806C6.18415 2.17527 6.25 2.33424 6.25 2.5V3.75H13.75V2.5C13.75 2.33424 13.8158 2.17527 13.9331 2.05806C14.0503 1.94085 14.2092 1.875 14.375 1.875C14.5408 1.875 14.6997 1.94085 14.8169 2.05806C14.9342 2.17527 15 2.33424 15 2.5V3.75H15.625C16.288 3.75 16.9239 4.01339 17.3928 4.48223C17.8616 4.95107 18.125 5.58696 18.125 6.25V15.625C18.125 16.288 17.8616 16.9239 17.3928 17.3928C16.9239 17.8616 16.288 18.125 15.625 18.125H4.375C3.71196 18.125 3.07607 17.8616 2.60723 17.3928C2.13839 16.9239 1.875 16.288 1.875 15.625V6.25C1.875 5.58696 2.13839 4.95107 2.60723 4.48223C3.07607 4.01339 3.71196 3.75 4.375 3.75H5V2.5C5 2.33424 5.06585 2.17527 5.18306 2.05806C5.30027 1.94085 5.45924 1.875 5.625 1.875ZM16.875 9.375C16.875 9.04348 16.7433 8.72554 16.5089 8.49112C16.2745 8.2567 15.9565 8.125 15.625 8.125H4.375C4.04348 8.125 3.72554 8.2567 3.49112 8.49112C3.2567 8.72554 3.125 9.04348 3.125 9.375V15.625C3.125 15.9565 3.2567 16.2745 3.49112 16.5089C3.72554 16.7433 4.04348 16.875 4.375 16.875H15.625C15.9565 16.875 16.2745 16.7433 16.5089 16.5089C16.7433 16.2745 16.875 15.9565 16.875 15.625V9.375Z" fill="#378FC4"/>
</svg>
