<svg width="40" height="40" viewBox="0 0 40 40" fill="none" xmlns="http://www.w3.org/2000/svg">
<path d="M14.3264 21.2881L14.5925 21.2883L14.5929 30.5613L14.5929 33.7414C14.5929 34.2571 14.5649 34.7891 14.5949 35.3032C14.4793 35.2853 14.3596 35.2735 14.249 35.2346C14.3105 35.2259 14.3723 35.227 14.433 35.2166C14.4966 35.0742 14.4793 34.866 14.4815 34.7114C14.4943 33.7955 14.4782 32.877 14.4781 31.9607L14.478 26.109L14.4786 23.1953C14.4808 22.5853 14.5156 21.9624 14.4561 21.3554C14.4186 21.3399 14.386 21.326 14.3513 21.3044C14.3429 21.2992 14.3346 21.2936 14.3264 21.2881Z" fill="#2085B1"/>
<path d="M14.2483 4.76602C14.3642 4.73577 14.4781 4.71521 14.5966 4.69775C14.5799 5.06459 14.5928 5.43465 14.593 5.80193V7.83862L14.5927 14.9721L14.593 17.3161C14.5931 17.7822 14.6039 18.2513 14.585 18.7169C14.271 18.7404 13.9536 18.7373 13.6389 18.7314C13.8845 18.645 14.1826 18.6624 14.4409 18.6624C14.5295 17.8662 14.4784 17.0358 14.4777 16.2335L14.477 12.0059L14.4778 7.36369C14.4788 6.54082 14.5288 5.60926 14.4582 4.79908L14.4188 4.77191C14.3618 4.77311 14.3051 4.76913 14.2483 4.76602Z" fill="#2085B1"/>
<path d="M1.91415 21.0826C2.56473 21.0526 3.22897 21.0965 3.88085 21.1071L7.69319 21.1712L12.1246 21.2466C12.8555 21.2593 13.5972 21.2444 14.3263 21.2879C14.3346 21.2933 14.3428 21.299 14.3512 21.3042C14.3859 21.3258 14.4185 21.3397 14.456 21.3551C14.5155 21.9622 14.4807 22.5851 14.4785 23.1951L14.4779 26.1088L14.478 31.9605C14.4782 32.8768 14.4942 33.7953 14.4814 34.7112C14.4792 34.8658 14.4965 35.074 14.4329 35.2164C14.3722 35.2268 14.3104 35.2257 14.2489 35.2343C13.9493 35.2198 13.4821 35.0901 13.1747 35.028L10.8944 34.5722L5.16099 33.4272C4.08112 33.2117 3.00182 32.9819 1.91808 32.7869C1.90283 32.2921 1.91295 31.7944 1.91308 31.2993L1.91311 28.7536L1.91415 21.0826Z" fill="#2085B1"/>
<path d="M1.92114 7.22058C2.19586 7.14717 2.48519 7.1031 2.76451 7.04755L4.35104 6.73151L9.34357 5.73548L12.6933 5.06808L13.6558 4.87349C13.8491 4.83414 14.0515 4.78169 14.2482 4.76611C14.305 4.76922 14.3617 4.7732 14.4186 4.772L14.4581 4.79918C14.5287 5.60936 14.4787 6.54091 14.4777 7.36379L14.4769 12.006L14.4776 16.2336C14.4783 17.0359 14.5294 17.8663 14.4408 18.6625C14.1825 18.6625 13.8843 18.6451 13.6388 18.7314C13.3352 18.7692 12.9946 18.7449 12.687 18.7486C12.0363 18.7533 11.3857 18.7644 10.7352 18.7818C7.79347 18.8447 4.85148 18.8905 1.90922 18.9192C1.92561 18.5714 1.91204 18.2171 1.91204 17.8686L1.91203 15.8789L1.91162 9.81621C1.91155 8.95496 1.87754 8.07973 1.92114 7.22058Z" fill="#2085B1"/>
<path d="M17.4999 21.337C18.8474 21.3353 20.1974 21.3747 21.5445 21.4009L26.3613 21.4838L38.0835 21.6843L38.0866 33.1942L38.0863 37.515C38.0863 38.3427 38.099 39.1727 38.0785 40H37.9738C37.8468 39.9227 34.9321 39.3739 34.4944 39.2865L22.8095 36.9534L19.2884 36.2506L18.1508 36.0242C17.9361 35.9823 17.7176 35.9299 17.5002 35.9082L17.4971 27.947C17.4973 25.7448 17.4699 23.5388 17.4999 21.337Z" fill="#2085B1"/>
<path d="M37.9682 0H38.0819C38.1077 1.14752 38.0866 2.30027 38.0866 3.44831L38.0863 9.9468L38.086 15.3784C38.0859 16.3594 38.1099 17.3464 38.0777 18.3267C37.1137 18.368 36.142 18.3534 35.1768 18.3664L30.9328 18.4399L23.5521 18.5748C22.1453 18.5839 20.7388 18.6078 19.3325 18.6468C18.7199 18.6591 18.1047 18.6468 17.4928 18.676C17.5316 17.4455 17.497 16.2029 17.4968 14.9713L17.4964 7.91273C17.4964 6.64366 17.4764 5.37112 17.5022 4.10261L32.8614 1.04076C33.4089 0.931516 37.8458 0.0793898 37.9682 0Z" fill="#2085B1"/>
</svg>
