<svg width="40" height="40" viewBox="0 0 40 40" fill="none" xmlns="http://www.w3.org/2000/svg">
<path d="M0 0H40V4.52165V24.6934V27.0352V28.4696V40H0V28.5281V27.0284V24.6926V4.42143V0ZM0 27.0284V28.5281V40H40V28.4696V27.0352C38.535 26.9966 37.0606 27.0304 35.5945 27.0305L0 27.0284ZM15.4848 14.0281C15.0895 13.6561 14.3309 12.7736 13.9228 12.5498C13.7569 12.4588 13.5838 12.4205 13.3961 12.4171C12.9739 12.4093 12.7112 12.5827 12.4202 12.8645C11.663 13.5973 10.9266 14.355 10.1816 15.1005C9.92156 15.3609 9.27508 15.9508 9.08992 16.2273C9.05784 16.2758 9.0294 16.3264 9.00461 16.3791C8.97987 16.4317 8.95906 16.4859 8.94219 16.5416C8.92531 16.5972 8.91253 16.6538 8.90383 16.7113C8.89518 16.7688 8.89073 16.8267 8.89047 16.8848C8.89172 17.4851 9.3532 17.8453 9.74375 18.2338L10.5037 18.9898C10.3837 19.3288 10.2359 19.6678 10.0916 19.9973C9.63117 20.0295 9.16031 20.0038 8.69844 20.0037C8.23688 20.0035 7.79237 20.0047 7.44662 20.3563C7.3055 20.4997 7.20113 20.6735 7.15706 20.8712C7.05842 21.3137 7.10934 21.8395 7.10933 22.2937L7.11034 24.6906C5.645 24.7164 4.17557 24.6939 2.70978 24.6938L1.01959 24.695C0.680963 24.6962 0.338027 24.7104 0 24.6926V27.0284L35.5945 27.0305C37.0606 27.0304 38.535 26.9966 40 27.0352V24.6934L32.8885 24.694C32.9041 23.9356 32.8925 23.1747 32.8926 22.416C32.8927 21.9522 32.9334 21.4464 32.862 20.9898C32.8322 20.7988 32.7728 20.6334 32.6545 20.4777C32.5208 20.3018 32.3359 20.1545 32.1261 20.0814C31.5888 19.8942 30.5245 20.0775 29.9048 19.9897C29.8976 19.9887 29.8904 19.9875 29.8832 19.9864C29.7763 19.6505 29.6066 19.3367 29.5023 18.9999C29.8891 18.5109 30.679 17.9418 30.963 17.4397C31.0451 17.2946 31.0901 17.141 31.1017 16.9751C31.1255 16.6358 31.0201 16.3498 30.795 16.0952C30.5605 15.83 30.2954 15.5845 30.0448 15.334L27.8495 13.1395C27.6695 12.9592 27.4886 12.7513 27.2803 12.6047C27.1174 12.49 26.8932 12.4267 26.6945 12.4158C26.6424 12.4124 26.5904 12.4126 26.5384 12.4163C26.4864 12.42 26.4349 12.4272 26.3838 12.4377C26.3328 12.4483 26.2827 12.4623 26.2335 12.4796C26.1843 12.4969 26.1366 12.5174 26.0902 12.5412C25.6675 12.758 24.9182 13.6552 24.5098 14.0243C24.1939 13.8771 23.8533 13.7423 23.5241 13.6279C23.4806 13.0225 23.6264 11.8126 23.3973 11.3016C23.2828 11.046 23.0493 10.8239 22.7886 10.722C22.6518 10.6686 22.5234 10.653 22.3781 10.6434C21.6227 10.593 20.7407 10.6303 19.9739 10.6305L18.5288 10.631C18.2446 10.6311 17.9576 10.6213 17.6741 10.6399C17.4958 10.6516 17.3223 10.6653 17.158 10.7418C16.5081 11.0444 16.4823 11.6377 16.4832 12.2612C16.4836 12.553 16.4862 12.8449 16.4909 13.1367C16.4923 13.257 16.5178 13.4457 16.4641 13.5534C16.3847 13.7127 15.6835 13.9437 15.4848 14.0281ZM0 0V4.42143C0.00463423 4.40966 0.00941906 4.39795 0.0139027 4.38613C0.104197 4.14795 0.115213 3.86867 0.198863 3.62152C0.218121 3.5657 0.238772 3.5104 0.260817 3.45562C0.282861 3.40084 0.306271 3.34664 0.331046 3.29304C0.355821 3.23944 0.38193 3.1865 0.409373 3.13421C0.436815 3.08192 0.465557 3.03036 0.495598 2.97952C0.525638 2.92869 0.55694 2.87864 0.589503 2.82938C0.622066 2.78011 0.655848 2.7317 0.690849 2.68414C0.725851 2.63658 0.762029 2.58994 0.799383 2.5442C0.836732 2.49846 0.875211 2.4537 0.91482 2.4099C0.95443 2.3661 0.995115 2.32333 1.03688 2.28159C1.07864 2.23984 1.12143 2.19917 1.16524 2.15958C1.20905 2.11998 1.25384 2.08152 1.29959 2.04419C1.34534 2.00685 1.392 1.97069 1.43957 1.9357C1.48714 1.90072 1.53556 1.86696 1.58484 1.83441C1.63411 1.80187 1.68417 1.77059 1.73502 1.74057C1.78587 1.71054 1.83745 1.68182 1.88974 1.6544C1.94204 1.62698 1.99499 1.60089 2.0486 1.57613C2.49502 1.36709 2.97295 1.28193 3.46185 1.25823C4.11028 1.22678 4.76825 1.24866 5.41753 1.24862L34.4553 1.24893C35.0972 1.24892 35.7479 1.2257 36.3888 1.2553C36.82 1.27522 37.2362 1.33182 37.6435 1.48192C37.6997 1.50261 37.7553 1.52468 37.8103 1.54811C37.8654 1.57154 37.9198 1.59632 37.9736 1.62243C38.0275 1.64854 38.0806 1.67597 38.1331 1.7047C38.1856 1.73343 38.2373 1.76344 38.2883 1.79473C38.3393 1.82601 38.3895 1.85853 38.4389 1.89228C38.4883 1.92604 38.5368 1.96099 38.5845 1.99714C38.6322 2.03329 38.6789 2.07059 38.7248 2.10905C38.7706 2.1475 38.8155 2.18705 38.8594 2.22772C38.9033 2.26838 38.9461 2.3101 38.988 2.35288C39.0298 2.39565 39.0705 2.43943 39.1102 2.48421C39.1499 2.529 39.1885 2.57473 39.2259 2.62141C39.2633 2.6681 39.2996 2.71567 39.3346 2.76414C39.3697 2.81261 39.4036 2.86191 39.4362 2.91205C39.4688 2.96219 39.5002 3.0131 39.5304 3.06478C39.5605 3.11647 39.5894 3.16886 39.617 3.22197C39.6445 3.27507 39.6707 3.32883 39.6956 3.38323C39.8055 3.62617 39.8752 3.88472 39.925 4.14609C39.9483 4.26856 39.9572 4.40463 40 4.52165V0H0ZM31.5734 5.96455C31.3848 5.98214 31.191 5.99368 31.0049 6.02947C30.9562 6.03917 30.9077 6.04991 30.8595 6.06171C30.8112 6.07351 30.7633 6.08634 30.7155 6.10021C30.6678 6.11409 30.6205 6.12898 30.5734 6.14491C30.5264 6.16083 30.4797 6.17776 30.4334 6.1957C30.387 6.21365 30.3411 6.23258 30.2956 6.25252C30.2501 6.27245 30.2051 6.29335 30.1605 6.31523C30.1159 6.33711 30.0718 6.35995 30.0281 6.38374C29.9845 6.40753 29.9415 6.43225 29.8989 6.45791C29.8564 6.48356 29.8144 6.51012 29.773 6.53759C29.7316 6.56506 29.6909 6.59341 29.6507 6.62265C29.6105 6.65188 29.571 6.68197 29.5322 6.71291C29.4933 6.74386 29.4552 6.77563 29.4177 6.80823C29.3802 6.84083 29.3434 6.87422 29.3073 6.90841C29.2713 6.94259 29.236 6.97755 29.2015 7.01327C29.167 7.04898 29.1332 7.08542 29.1003 7.1226C29.0673 7.15977 29.0352 7.19764 29.0039 7.23621C28.9679 7.28023 28.9329 7.32511 28.8991 7.37084C28.8653 7.41657 28.8326 7.4631 28.801 7.51043C28.7695 7.55776 28.7391 7.60584 28.7098 7.65466C28.6806 7.70349 28.6526 7.75299 28.6259 7.80319C28.5991 7.85335 28.5736 7.90417 28.5493 7.95563C28.525 8.00708 28.502 8.05909 28.4802 8.11164C28.4585 8.16425 28.4381 8.21732 28.4189 8.27086C28.3998 8.32445 28.382 8.37846 28.3655 8.43289C28.349 8.48737 28.3339 8.54219 28.3201 8.59734C28.3062 8.65255 28.2938 8.70805 28.2827 8.76383C28.2716 8.81966 28.2619 8.8757 28.2536 8.93195C28.2453 8.98826 28.2383 9.04471 28.2327 9.10133C28.2271 9.15794 28.2229 9.21466 28.2202 9.27148C28.2173 9.32826 28.2159 9.3851 28.2159 9.44203C28.2159 9.49891 28.2173 9.55576 28.2201 9.61258C28.2228 9.6694 28.227 9.72612 28.2326 9.78273C28.2378 9.8406 28.2446 9.89828 28.2527 9.95578C28.2609 10.0133 28.2704 10.0706 28.2815 10.1277C28.2925 10.1847 28.3049 10.2414 28.3188 10.2978C28.3327 10.3542 28.3479 10.4102 28.3646 10.4659C28.3813 10.5215 28.3993 10.5767 28.4188 10.6315C28.4382 10.6862 28.459 10.7404 28.4812 10.7941C28.5033 10.8478 28.5268 10.901 28.5516 10.9535C28.5764 11.006 28.6026 11.0579 28.63 11.1091C28.6574 11.1603 28.6861 11.2108 28.716 11.2606C28.746 11.3104 28.7771 11.3594 28.8095 11.4076C28.8419 11.4558 28.8755 11.5032 28.9103 11.5498C28.9451 11.5963 28.981 11.6419 29.018 11.6866C29.0551 11.7314 29.0932 11.7752 29.1325 11.818C29.1718 11.8608 29.2121 11.9026 29.2534 11.9434C29.2947 11.9842 29.3371 12.024 29.3805 12.0627C29.4238 12.1014 29.4681 12.1389 29.5133 12.1754C30.1521 12.7002 31.051 13.0167 31.8823 12.9498C32.9898 12.8411 33.7519 12.4861 34.4708 11.613C35.0448 10.9159 35.2883 9.97906 35.1978 9.08836C35.1922 9.03112 35.1851 8.97409 35.1766 8.91727C35.1682 8.86039 35.1583 8.80375 35.147 8.74734C35.1357 8.69099 35.1229 8.63495 35.1088 8.57922C35.0947 8.52349 35.0792 8.46815 35.0623 8.4132C35.0455 8.3582 35.0272 8.3037 35.0077 8.24969C34.988 8.19563 34.9671 8.14208 34.9448 8.08906C34.9226 8.03609 34.899 7.9837 34.8741 7.93188C34.8492 7.88005 34.823 7.82887 34.7955 7.77834C34.7681 7.72782 34.7394 7.67802 34.7095 7.62894C34.6795 7.57985 34.6484 7.53155 34.616 7.48402C34.5836 7.4365 34.5501 7.38981 34.5154 7.34396C34.4807 7.29811 34.4449 7.25316 34.408 7.20909C34.371 7.16504 34.333 7.12193 34.294 7.07977C34.2549 7.0376 34.2147 6.99645 34.1736 6.95629C34.1325 6.91613 34.0903 6.87703 34.0472 6.83898C34.0041 6.80092 33.9601 6.76397 33.9152 6.72813C33.371 6.28752 32.7302 6.03622 32.0341 5.97403C31.8976 5.96184 31.7499 5.94727 31.6131 5.9602C31.5999 5.96144 31.5866 5.96309 31.5734 5.96455Z" fill="#2085B1"/>
<path d="M31.654 8.28766C31.9348 8.28484 32.1995 8.35266 32.426 8.525C32.4566 8.54807 32.486 8.57266 32.5142 8.59875C32.5424 8.62479 32.5692 8.65219 32.5947 8.68094C32.6201 8.70964 32.644 8.73958 32.6664 8.77078C32.6888 8.80193 32.7096 8.83412 32.7288 8.86734C32.748 8.90057 32.7654 8.93469 32.7812 8.96969C32.7969 9.00469 32.8109 9.04037 32.823 9.07672C32.8352 9.11313 32.8455 9.15005 32.854 9.1875C32.8624 9.22495 32.869 9.26271 32.8736 9.30078C32.8786 9.33896 32.8817 9.37729 32.8829 9.41578C32.8841 9.45427 32.8835 9.49271 32.8809 9.53109C32.8783 9.56953 32.8739 9.60773 32.8675 9.6457C32.8612 9.68367 32.853 9.72125 32.843 9.75844C32.833 9.79557 32.8211 9.83214 32.8075 9.86813C32.7939 9.90417 32.7785 9.93943 32.7614 9.97391C32.7443 10.0084 32.7255 10.042 32.7051 10.0746C32.6847 10.1073 32.6628 10.1388 32.6392 10.1693C32.4232 10.4459 32.1348 10.5821 31.7909 10.6227C31.5068 10.6302 31.2297 10.5588 31.003 10.3819C30.7609 10.193 30.5995 9.92328 30.5623 9.61617C30.5572 9.57695 30.554 9.53758 30.5527 9.49805C30.5515 9.45852 30.5522 9.41904 30.5548 9.37961C30.5574 9.34013 30.562 9.30089 30.5685 9.26188C30.575 9.22287 30.5834 9.18427 30.5938 9.14609C30.6041 9.10792 30.6162 9.07034 30.6302 9.03336C30.6442 8.99638 30.6601 8.96018 30.6777 8.92477C30.6952 8.88935 30.7145 8.85487 30.7355 8.82133C30.7564 8.78779 30.779 8.75537 30.8031 8.72406C31.0258 8.44125 31.3057 8.32969 31.654 8.28766Z" fill="#2085B1"/>
<path d="M19.9478 20.0083C20.3766 19.9996 20.8127 20.083 21.2145 20.2287C21.2686 20.2488 21.3223 20.2702 21.3754 20.293C21.4285 20.3157 21.481 20.3398 21.533 20.3651C21.5849 20.3904 21.6362 20.417 21.6869 20.4448C21.7375 20.4727 21.7874 20.5018 21.8366 20.5321C21.8858 20.5624 21.9342 20.5939 21.9819 20.6266C22.0295 20.6593 22.0764 20.6931 22.1223 20.7281C22.1683 20.7631 22.2134 20.7992 22.2577 20.8364C22.3019 20.8736 22.3451 20.9118 22.3874 20.9512C22.4298 20.9905 22.4711 21.0309 22.5115 21.0723C22.5518 21.1136 22.5911 21.156 22.6294 21.1993C22.6677 21.2426 22.7048 21.2868 22.7409 21.332C22.777 21.3771 22.812 21.423 22.8458 21.4699C22.8796 21.5167 22.9123 21.5644 22.9437 21.6128C22.9753 21.6613 23.0055 21.7105 23.0346 21.7605C23.0637 21.8104 23.0915 21.861 23.118 21.9123C23.1447 21.9636 23.17 22.0156 23.194 22.0681C23.58 22.8991 23.5895 23.8346 23.2806 24.689C22.8969 24.7041 22.5094 24.6941 22.1252 24.6941L17.992 24.6944C17.5587 24.6948 17.1227 24.7065 16.69 24.6841C16.6309 24.3596 16.5288 24.057 16.5022 23.7242C16.4293 22.8155 16.7701 21.8911 17.3595 21.2069C18.0605 20.393 18.9024 20.0827 19.9478 20.0083Z" fill="#2085B1"/>
<path d="M18.8368 12.9698C19.6151 12.9649 20.3934 12.9659 21.1716 12.973L21.1709 13.8406C21.1702 14.3072 21.1247 14.8565 21.462 15.2305C21.5637 15.3432 21.677 15.4351 21.8139 15.5017C22.0627 15.6229 22.333 15.6909 22.5956 15.7754C22.8629 15.8634 23.1247 15.9654 23.3809 16.0816C23.7913 16.2712 24.2303 16.6095 24.6948 16.6233C25.268 16.6403 25.619 16.2398 25.9894 15.8662C26.1986 15.6552 26.4063 15.4409 26.6232 15.2377C26.869 15.4565 27.0977 15.6973 27.3306 15.9297C27.6004 16.1987 27.8758 16.4643 28.1385 16.7402C28.167 16.7702 28.238 16.8372 28.247 16.8752C28.2533 16.9016 28.1609 17.0019 28.1394 17.0257C27.6892 17.526 26.8943 18.0334 26.8888 18.7705C26.8877 18.9163 26.9161 19.0488 26.9663 19.1845C27.1245 19.6131 27.3896 20.007 27.5664 20.4327C27.7305 20.8277 27.8102 21.2561 27.9857 21.6434C28.0448 21.7741 28.1114 21.8791 28.2116 21.9821C28.6078 22.3893 29.1743 22.3462 29.6966 22.3441C29.98 22.3416 30.2634 22.3428 30.5467 22.3479L30.5479 24.6907C28.935 24.7188 27.3174 24.6928 25.7041 24.692C25.7288 24.552 25.7583 24.413 25.7804 24.2723C25.7939 24.1811 25.8053 24.0897 25.8144 23.998C25.8234 23.9062 25.8303 23.8144 25.8348 23.7223C25.8394 23.6303 25.8418 23.5381 25.8419 23.4459C25.8419 23.3538 25.8398 23.2616 25.8354 23.1696C25.831 23.0775 25.8243 22.9856 25.8154 22.8938C25.8065 22.8021 25.7953 22.7106 25.782 22.6195C25.7686 22.5283 25.7529 22.4374 25.7351 22.347C25.7173 22.2565 25.6973 22.1666 25.6751 22.0771C25.6528 21.9877 25.6284 21.8988 25.6019 21.8105C25.5753 21.7223 25.5466 21.6347 25.5157 21.5479C25.4849 21.461 25.4519 21.3749 25.4169 21.2897C25.3818 21.2044 25.3447 21.1201 25.3055 21.0366C25.2664 20.9532 25.2252 20.8708 25.182 20.7894C25.1388 20.708 25.0936 20.6277 25.0465 20.5484C24.9994 20.4692 24.9503 20.3912 24.8993 20.3144C24.8484 20.2376 24.7956 20.162 24.7409 20.0878C23.8693 18.8943 22.5205 17.9977 21.0502 17.7639C20.3153 17.5613 19.0705 17.6966 18.3396 17.9059C18.2481 17.9328 18.1573 17.9619 18.0673 17.9933C17.9772 18.0246 17.888 18.0581 17.7995 18.0938C17.7111 18.1295 17.6236 18.1673 17.537 18.2073C17.4505 18.2473 17.3649 18.2894 17.2805 18.3336C17.1959 18.3778 17.1126 18.424 17.0303 18.4723C16.9481 18.5205 16.8671 18.5708 16.7873 18.623C16.7075 18.6753 16.6291 18.7294 16.552 18.7855C16.4748 18.8416 16.3991 18.8995 16.3248 18.9593C16.2505 19.0191 16.1777 19.0807 16.1065 19.144C16.0352 19.2073 15.9655 19.2724 15.8974 19.3391C15.8293 19.4059 15.7629 19.4743 15.6982 19.5443C15.6335 19.6143 15.5705 19.6859 15.5092 19.759C15.448 19.8321 15.3886 19.9067 15.331 19.9827C15.2734 20.0587 15.2177 20.1361 15.164 20.2148C15.1102 20.2935 15.0583 20.3735 15.0084 20.4548C14.9586 20.5361 14.9108 20.6185 14.8649 20.7022C14.2435 21.8416 13.9284 23.4184 14.3005 24.687C13.7347 24.7055 13.1655 24.694 12.5992 24.694H9.45102C9.47703 23.912 9.4368 23.1269 9.45914 22.3442C9.96086 22.3408 10.4814 22.3793 10.98 22.3315C11.3298 22.2979 11.635 22.1686 11.8605 21.8913C12.1315 21.558 12.2705 20.8162 12.453 20.3821C12.6323 19.9559 12.9836 19.4498 13.079 19.0234C13.1287 18.8011 13.112 18.5145 13.0135 18.3073C12.8384 17.9387 11.7841 17.0441 11.7673 16.8785C11.8627 16.6858 13.0016 15.5553 13.2474 15.3498C13.2768 15.3252 13.3287 15.282 13.3668 15.2736C13.3758 15.2716 13.4098 15.2873 13.4127 15.2887C13.5103 15.3398 13.6137 15.4715 13.6913 15.5499C14.0994 15.9619 14.545 16.565 15.1641 16.6194C15.2445 16.6264 15.3247 16.6248 15.4048 16.6145C15.4848 16.6042 15.5628 16.5855 15.6388 16.5584C16.0503 16.4143 16.4309 16.1555 16.8357 15.982C17.2657 15.7976 18.0893 15.6254 18.3952 15.3609C18.8274 14.9874 18.8309 14.5056 18.8299 13.9775C18.8293 13.6427 18.8151 13.3039 18.8368 12.9698Z" fill="#2085B1"/>
<path d="M12.9187 34.0677C13.8237 34.0286 14.745 34.0616 15.6517 34.0616L24.9189 34.0614C25.6371 34.0612 26.3805 34.0235 27.0964 34.0739C27.3646 34.8432 27.6148 35.6197 27.874 36.3921C28.2294 36.4268 28.6 36.4063 28.9577 36.406L30.8972 36.4045C31.2666 36.4045 31.6848 36.3675 32.0441 36.46C32.2258 36.5068 32.3988 36.6144 32.5332 36.7443C32.561 36.7708 32.5873 36.7986 32.6123 36.8278C32.6372 36.857 32.6605 36.8874 32.6824 36.9189C32.7043 36.9505 32.7245 36.9831 32.743 37.0166C32.7616 37.0502 32.7785 37.0847 32.7935 37.12C32.8086 37.1553 32.8219 37.1913 32.8333 37.2279C32.8447 37.2646 32.8543 37.3017 32.862 37.3393C32.8697 37.3769 32.8754 37.4148 32.8793 37.453C32.8832 37.4911 32.8851 37.5294 32.885 37.5678C32.8852 37.6064 32.8835 37.6449 32.8798 37.6833C32.8763 37.7217 32.8708 37.7598 32.8634 37.7977C32.8561 37.8355 32.8469 37.8729 32.8359 37.9099C32.8248 37.9469 32.812 37.9832 32.7974 38.0189C32.7828 38.0546 32.7665 38.0895 32.7484 38.1236C32.7304 38.1577 32.7108 38.1908 32.6895 38.223C32.6682 38.2551 32.6453 38.2861 32.621 38.3161C32.5967 38.346 32.5709 38.3746 32.5438 38.402C32.3965 38.5506 32.2077 38.6669 32.0023 38.7111C31.5603 38.8063 30.7494 38.7567 30.2774 38.7568L10.1322 38.7552L8.97797 38.7589C8.71813 38.7601 8.45086 38.7713 8.19227 38.7448C7.91195 38.716 7.6595 38.6115 7.45689 38.4112C7.42957 38.3844 7.40366 38.3563 7.37918 38.327C7.3547 38.2975 7.33176 38.267 7.31036 38.2353C7.28896 38.2036 7.26921 38.1709 7.25112 38.1372C7.23302 38.1035 7.21667 38.069 7.20206 38.0336C7.18745 37.9982 7.17466 37.9622 7.16369 37.9256C7.15271 37.889 7.14361 37.8519 7.13639 37.8143C7.12917 37.7767 7.12385 37.7389 7.12045 37.7008C7.11705 37.6627 7.11557 37.6245 7.11602 37.5863C7.11735 37.2651 7.2374 36.9578 7.46787 36.732C7.50467 36.6956 7.5439 36.6621 7.58557 36.6315C7.62724 36.6009 7.67091 36.5734 7.71656 36.5491C7.76222 36.5248 7.80941 36.5039 7.85813 36.4865C7.90682 36.469 7.95651 36.4552 8.00719 36.445C8.44109 36.3577 9.02117 36.4041 9.47125 36.4045L12.1141 36.4073C12.2945 35.8895 12.4693 35.3699 12.6387 34.8484C12.7229 34.5945 12.7911 34.302 12.9187 34.0677Z" fill="#2085B1"/>
<path d="M0 27.0284L35.5945 27.0305C37.0606 27.0304 38.535 26.9966 40 27.0352V28.4696C39.9982 28.4752 39.9963 28.4809 39.9945 28.4865C39.914 28.7449 39.8923 29.0191 39.8088 29.2809C39.5345 30.1425 38.8793 30.8608 38.0898 31.2853C37.9727 31.3494 37.8523 31.4066 37.7287 31.457C37.605 31.5073 37.4789 31.5505 37.3503 31.5864C37.2217 31.6223 37.0915 31.6508 36.9597 31.6719C36.8279 31.693 36.6953 31.7065 36.5619 31.7123C35.8609 31.7479 35.1507 31.7254 34.4486 31.7254L5.53982 31.7261C4.62413 31.7264 3.32564 31.8109 2.46862 31.5529C1.58414 31.2866 0.837094 30.6352 0.405045 29.8259C0.249227 29.5339 0.157477 29.242 0.0864945 28.9191C0.0595185 28.7964 0.0521116 28.6413 0 28.5281V27.0284Z" fill="#2085B1"/>
</svg>
