<svg width="40" height="40" viewBox="0 0 40 40" fill="none" xmlns="http://www.w3.org/2000/svg">
<path d="M19.9636 25.7118C20.0357 25.7098 20.1079 25.7094 20.18 25.7107C20.2521 25.712 20.3242 25.715 20.3962 25.7196C20.4683 25.7243 20.5401 25.7306 20.6118 25.7385C20.6835 25.7466 20.755 25.7562 20.8263 25.7675C20.8976 25.7788 20.9685 25.7917 21.0392 25.8063C21.1099 25.8209 21.1802 25.8371 21.2501 25.8549C21.32 25.8728 21.3895 25.8923 21.4585 25.9133C21.5275 25.9344 21.596 25.9571 21.664 25.9813C21.7319 26.0055 21.7993 26.0314 21.8661 26.0588C21.9328 26.0861 21.9989 26.115 22.0644 26.1454C22.1298 26.1759 22.1944 26.2078 22.2583 26.2413C22.3223 26.2747 22.3855 26.3096 22.4478 26.346C22.5101 26.3823 22.5716 26.4201 22.6322 26.4593C22.6927 26.4985 22.7524 26.5391 22.811 26.5811C22.8697 26.6231 22.9274 26.6664 22.984 26.7111C23.0408 26.7557 23.0964 26.8017 23.1509 26.8489C23.2096 26.8996 23.2669 26.9517 23.323 27.0052C23.379 27.0587 23.4337 27.1136 23.487 27.1699C23.5403 27.2261 23.5921 27.2837 23.6426 27.3425C23.693 27.4013 23.742 27.4614 23.7894 27.5227C23.8368 27.5839 23.8827 27.6463 23.927 27.7099C23.9713 27.7735 24.0141 27.8382 24.0552 27.9038C24.0963 27.9695 24.1357 28.0362 24.1735 28.1039C24.2113 28.1716 24.2473 28.2401 24.2817 28.3096C24.316 28.3791 24.3486 28.4493 24.3794 28.5204C24.4103 28.5915 24.4394 28.6633 24.4666 28.7359C24.4939 28.8084 24.5193 28.8816 24.543 28.9554C24.5665 29.0292 24.5883 29.1036 24.6082 29.1785C24.6281 29.2534 24.6461 29.3287 24.6623 29.4046C24.6784 29.4803 24.6926 29.5565 24.705 29.633C24.7173 29.7095 24.7277 29.7863 24.7362 29.8633C24.7448 29.9403 24.7514 30.0175 24.756 30.0949C24.7606 30.171 24.7634 30.2471 24.7644 30.3234C24.7652 30.3996 24.7643 30.4758 24.7615 30.552C24.7586 30.6282 24.7539 30.7042 24.7473 30.7802C24.7408 30.8561 24.7323 30.9318 24.722 31.0074C24.7118 31.0829 24.6996 31.1582 24.6856 31.2331C24.6717 31.308 24.6558 31.3826 24.6382 31.4567C24.6205 31.5309 24.6011 31.6046 24.5798 31.6778C24.5586 31.751 24.5355 31.8236 24.5107 31.8957C24.4858 31.9678 24.4593 32.0392 24.4309 32.11C24.4026 32.1808 24.3725 32.2508 24.3408 32.3201C24.3089 32.3894 24.2755 32.4579 24.2404 32.5256C24.2052 32.5932 24.1684 32.66 24.13 32.7258C24.0916 32.7916 24.0516 32.8565 24.01 32.9203C23.9684 32.9842 23.9252 33.0471 23.8805 33.1088C23.8358 33.1706 23.7896 33.2312 23.7419 33.2907C23.6943 33.3502 23.6452 33.4085 23.5947 33.4656C22.7337 34.4385 21.5616 34.9749 20.2733 35.0539C19.0598 35.077 17.8938 34.6773 16.9835 33.8651C16.9263 33.8142 16.8704 33.7618 16.8158 33.7081C16.7611 33.6544 16.7079 33.5994 16.6559 33.5431C16.604 33.4867 16.5536 33.4291 16.5045 33.3703C16.4555 33.3115 16.4079 33.2515 16.3618 33.1903C16.3157 33.1291 16.2711 33.0668 16.2281 33.0034C16.1851 32.94 16.1437 32.8756 16.1038 32.8101C16.064 32.7447 16.0258 32.6783 15.9893 32.611C15.9527 32.5437 15.9179 32.4755 15.8847 32.4064C15.8515 32.3374 15.82 32.2675 15.7903 32.197C15.7606 32.1263 15.7326 32.055 15.7064 31.9831C15.6802 31.9111 15.6558 31.8385 15.6331 31.7653C15.6105 31.6922 15.5897 31.6185 15.5707 31.5442C15.5517 31.47 15.5346 31.3954 15.5193 31.3203C15.504 31.2452 15.4906 31.1698 15.479 31.0941C15.4675 31.0184 15.4578 30.9424 15.45 30.8662C15.4422 30.79 15.4362 30.7136 15.4322 30.6371C15.4278 30.5597 15.4254 30.4822 15.4249 30.4046C15.4244 30.3271 15.4258 30.2496 15.4292 30.1721C15.4326 30.0946 15.4379 30.0172 15.4451 29.9399C15.4524 29.8628 15.4615 29.7858 15.4726 29.709C15.4837 29.6322 15.4967 29.5558 15.5115 29.4796C15.5264 29.4035 15.5432 29.3278 15.5619 29.2525C15.5805 29.1773 15.601 29.1025 15.6234 29.0282C15.6458 28.954 15.6701 28.8803 15.6962 28.8073C15.7223 28.7342 15.7501 28.6618 15.7798 28.5902C15.8095 28.5185 15.8409 28.4476 15.8741 28.3776C15.9074 28.3075 15.9423 28.2383 15.979 28.1699C16.0156 28.1016 16.054 28.0342 16.094 27.9678C16.1341 27.9013 16.1758 27.8359 16.219 27.7716C16.2623 27.7072 16.3072 27.644 16.3537 27.5819C16.4001 27.5198 16.4481 27.4588 16.4976 27.3991C16.5471 27.3394 16.5981 27.281 16.6505 27.2238C17.5217 26.2646 18.6813 25.776 19.9636 25.7118Z" fill="#2085B1"/>
<path d="M19.9156 14.6564C19.9292 14.6552 19.9429 14.6543 19.9566 14.6535C20.6818 14.6167 21.4399 14.6734 22.16 14.7556C25.4956 15.136 28.4488 16.5515 30.9244 18.8025C31.2594 19.1071 31.5706 19.4361 31.8856 19.761C32.6188 20.5174 33.1777 21.0869 33.2243 22.2069C33.2264 22.2548 33.2273 22.3028 33.227 22.3507C33.2267 22.3987 33.2252 22.4466 33.2225 22.4946C33.2198 22.5425 33.2159 22.5903 33.2108 22.638C33.2057 22.6857 33.1995 22.7332 33.192 22.7806C33.1845 22.828 33.1758 22.8752 33.166 22.9221C33.1561 22.9691 33.1451 23.0157 33.1329 23.0621C33.1207 23.1085 33.1074 23.1546 33.0929 23.2003C33.0784 23.2461 33.0627 23.2914 33.046 23.3364C33.0292 23.3813 33.0113 23.4258 32.9923 23.4699C32.9733 23.5139 32.9532 23.5575 32.932 23.6005C32.9108 23.6435 32.8885 23.686 32.8652 23.7279C32.8419 23.7698 32.8175 23.8112 32.7921 23.8519C32.7668 23.8926 32.7404 23.9326 32.713 23.972C32.6855 24.0114 32.6571 24.0501 32.6278 24.088C32.5985 24.126 32.5682 24.1632 32.537 24.1996C32.5058 24.236 32.4737 24.2717 32.4407 24.3065C31.9271 24.8581 31.1949 25.2106 30.4381 25.2317C28.8809 25.2753 28.1592 24.2497 27.1346 23.2896C26.8948 23.0647 26.6519 22.831 26.3954 22.6257C24.5863 21.1772 22.4119 20.4689 20.1025 20.5418C19.6947 20.5484 19.2879 20.6014 18.8859 20.667C16.8801 20.9939 15.1824 21.9325 13.7374 23.3444C13.3902 23.6835 13.0502 24.0303 12.7072 24.3736C12.4059 24.6753 12.1056 24.9933 11.7521 25.235C11.7011 25.2698 11.649 25.3028 11.5958 25.3342C11.5426 25.3655 11.4885 25.3951 11.4334 25.4229C11.3783 25.4507 11.3223 25.4767 11.2656 25.5009C11.2087 25.5251 11.1512 25.5474 11.093 25.5678C11.0347 25.5883 10.9758 25.6068 10.9164 25.6234C10.8569 25.64 10.797 25.6546 10.7366 25.6673C10.6762 25.68 10.6154 25.6907 10.5543 25.6995C10.4932 25.7082 10.4319 25.715 10.3703 25.7197C9.57001 25.7878 8.80345 25.5102 8.19658 24.9932C7.61415 24.4971 7.26788 23.747 7.21476 22.9899C7.15469 22.1338 7.47198 21.3999 8.02525 20.7643C8.39337 20.3414 8.81681 19.9517 9.21369 19.5552C9.72908 19.0403 10.2702 18.5123 10.8391 18.0567C10.9782 17.9443 11.1192 17.8344 11.2622 17.727C11.4052 17.6195 11.55 17.5146 11.6967 17.4122C11.8433 17.3098 11.9917 17.21 12.1418 17.1128C12.2919 17.0156 12.4437 16.921 12.5971 16.8291C12.7505 16.7372 12.9055 16.648 13.062 16.5615C13.2186 16.475 13.3766 16.3912 13.536 16.3103C13.6955 16.2293 13.8563 16.1511 14.0185 16.0757C14.1807 16.0004 14.3442 15.9278 14.5088 15.8582C14.6736 15.7885 14.8395 15.7218 15.0066 15.6579C15.1736 15.594 15.3417 15.5331 15.5109 15.4751C15.6801 15.4171 15.8502 15.3621 16.0213 15.31C16.1924 15.2579 16.3644 15.2089 16.5372 15.1628C16.71 15.1168 16.8836 15.0738 17.0579 15.0338C17.2322 14.9938 17.4072 14.9568 17.5828 14.9229C17.7584 14.8891 17.9345 14.8583 18.1113 14.8305C18.2879 14.8028 18.465 14.7782 18.6426 14.7566C19.0627 14.7035 19.4929 14.6878 19.9156 14.6564Z" fill="#2085B1"/>
<path d="M0 15.415C0.0520794 15.3144 0.076419 15.1807 0.108987 15.0714C0.173071 14.8564 0.250117 14.6488 0.361523 14.4532C0.670642 13.9104 1.50961 13.1647 1.97743 12.6972C5.18402 9.49332 8.95133 7.13093 13.3386 5.91503C13.5426 5.85728 13.7472 5.80209 13.9525 5.74945C14.1579 5.6968 14.3638 5.64673 14.5704 5.59922C14.777 5.55172 14.9842 5.5068 15.1919 5.46446C15.3996 5.42211 15.6078 5.38237 15.8165 5.34522C16.0252 5.30808 16.2343 5.27354 16.4438 5.2416C16.6534 5.20967 16.8633 5.18036 17.0736 5.15367C17.2839 5.12697 17.4945 5.10291 17.7054 5.08146C17.9163 5.06002 18.1274 5.04121 18.3387 5.02503C18.5501 5.00886 18.7616 4.99532 18.9734 4.98442C19.185 4.97352 19.3968 4.96526 19.6087 4.95964C19.8207 4.95402 20.0326 4.95105 20.2445 4.95071C20.4565 4.95039 20.6685 4.9527 20.8804 4.95765C21.0923 4.9626 21.3041 4.9702 21.5159 4.98044C21.7276 4.99068 21.9392 5.00356 22.1506 5.01907C22.362 5.03459 22.5732 5.05274 22.7841 5.07352C22.9951 5.0943 23.2058 5.11771 23.4162 5.14375C23.6265 5.16978 23.8365 5.19844 24.0462 5.22971C24.2559 5.26099 24.4651 5.29488 24.6739 5.33137C24.8827 5.36786 25.091 5.40696 25.2988 5.44864C25.5067 5.49034 25.714 5.53461 25.9207 5.58147C26.1274 5.62833 26.3335 5.67776 26.5391 5.72976C26.7446 5.78176 26.9494 5.83632 27.1535 5.89343C27.3577 5.95053 27.5611 6.01018 27.7638 6.07236C27.9664 6.13454 28.1682 6.19925 28.3692 6.26646C28.5703 6.33368 28.7704 6.4034 28.9698 6.4756C29.169 6.54781 29.3674 6.6225 29.5648 6.69965C29.7623 6.77681 29.9587 6.85642 30.1542 6.93848C30.3496 7.02054 30.544 7.10502 30.7373 7.19193C30.9307 7.27883 31.123 7.36813 31.3141 7.45983C31.5052 7.55153 31.6952 7.6456 31.8839 7.74203C32.0727 7.83847 32.2602 7.93726 32.4465 8.0384C32.6328 8.1395 32.8178 8.24291 33.0016 8.34864C33.6502 8.72504 34.2811 9.12918 34.8941 9.56106C35.5073 9.99293 36.1002 10.4509 36.673 10.9349C36.9488 11.1632 37.2377 11.3842 37.5016 11.6256C37.8671 11.96 38.2099 12.3286 38.5602 12.6795C38.9211 13.0412 39.327 13.3958 39.6011 13.8303C39.8187 14.175 39.8937 14.548 40 14.9339V15.5226C39.7667 16.42 39.5087 17.034 38.6658 17.5307C38.6277 17.5532 38.5891 17.5747 38.55 17.5953C38.5109 17.6159 38.4712 17.6355 38.4311 17.6541C38.391 17.6727 38.3504 17.6903 38.3095 17.7068C38.2685 17.7234 38.2271 17.7389 38.1853 17.7534C38.1435 17.7679 38.1014 17.7813 38.0589 17.7937C38.0165 17.8061 37.9737 17.8174 37.9307 17.8276C37.8877 17.8379 37.8445 17.847 37.801 17.8551C37.7575 17.8632 37.7139 17.8701 37.6701 17.876C37.6262 17.8819 37.5823 17.8867 37.5382 17.8904C37.4941 17.8941 37.45 17.8966 37.4059 17.8981C37.3616 17.8995 37.3174 17.8999 37.2732 17.8992C37.229 17.8984 37.1848 17.8965 37.1407 17.8936C37.0966 17.8906 37.0526 17.8866 37.0087 17.8814C36.9648 17.8762 36.921 17.87 36.8774 17.8626C36.8338 17.8552 36.7904 17.8468 36.7473 17.8372C36.7041 17.8277 36.6612 17.8171 36.6185 17.8054C35.5834 17.5289 34.8317 16.4736 34.0727 15.7611C33.566 15.2862 33.038 14.8363 32.4886 14.4115C32.2932 14.2624 32.0952 14.1168 31.8945 13.975C31.6938 13.8331 31.4906 13.6949 31.2848 13.5605C31.0791 13.4261 30.8709 13.2955 30.6604 13.1686C30.4499 13.0418 30.2371 12.9189 30.022 12.7999C29.807 12.6808 29.5898 12.5658 29.3706 12.4547C29.1514 12.3436 28.9301 12.2366 28.707 12.1337C28.4838 12.0307 28.2588 11.9319 28.032 11.8372C27.8052 11.7424 27.5767 11.6519 27.3466 11.5655C27.1165 11.4792 26.8849 11.397 26.6518 11.3192C26.4187 11.2413 26.1842 11.1678 25.9484 11.0985C25.7125 11.0292 25.4755 10.9643 25.2373 10.9036C24.9992 10.8431 24.7599 10.7869 24.5197 10.735C24.2794 10.6832 24.0383 10.6357 23.7963 10.5928C23.5543 10.5498 23.3116 10.5112 23.0682 10.4771C22.8248 10.443 22.5809 10.4133 22.3364 10.3882C22.0919 10.363 21.847 10.3423 21.6018 10.3261C21.3565 10.3099 21.1111 10.2982 20.8654 10.291C20.6197 10.2837 20.374 10.281 20.1282 10.2829C19.8824 10.2846 19.6368 10.2909 19.3912 10.3017C19.1457 10.3125 18.9004 10.3278 18.6554 10.3475C18.4104 10.3673 18.1659 10.3915 17.9218 10.4203C17.6777 10.449 17.4342 10.4822 17.1913 10.5198C16.9485 10.5575 16.7064 10.5995 16.465 10.6461C16.2236 10.6926 15.9832 10.7435 15.7438 10.7989C15.5043 10.8542 15.2659 10.9139 15.0287 10.9779C14.7914 11.042 14.5553 11.1104 14.3205 11.183C14.0858 11.2557 13.8524 11.3327 13.6204 11.4139C13.3885 11.4952 13.1581 11.5807 12.9292 11.6704C12.7004 11.76 12.4733 11.8539 12.2479 11.9519C12.0225 12.0499 11.7989 12.152 11.5773 12.2582C11.3557 12.3644 11.136 12.4747 10.9184 12.5889C10.7008 12.7031 10.4853 12.8213 10.272 12.9435C9.92542 13.1436 9.58508 13.3538 9.25102 13.5743C8.91695 13.7947 8.58977 14.0249 8.26945 14.2648C7.94912 14.5048 7.63622 14.754 7.33077 15.0126C7.0253 15.2712 6.72782 15.5387 6.4383 15.815C6.00652 16.2233 5.59381 16.6552 5.17377 17.0756C4.79234 17.4574 4.41638 17.8779 3.93816 18.1399C3.90121 18.1602 3.86378 18.1796 3.82588 18.198C3.78799 18.2165 3.74967 18.2341 3.71092 18.2507C3.67217 18.2673 3.63304 18.283 3.59353 18.2977C3.55403 18.3124 3.51418 18.3262 3.47401 18.339C3.43383 18.3518 3.39337 18.3636 3.35262 18.3744C3.31187 18.3852 3.27088 18.395 3.22966 18.4039C3.18843 18.4127 3.14702 18.4206 3.10541 18.4274C3.0638 18.4342 3.02205 18.44 2.98016 18.4448C2.93828 18.4496 2.8963 18.4534 2.85423 18.4561C2.81216 18.4589 2.77005 18.4606 2.72789 18.4614C2.68573 18.462 2.64359 18.4617 2.60145 18.4604C2.5593 18.4591 2.51722 18.4567 2.4752 18.4534C2.43316 18.45 2.39124 18.4456 2.34943 18.4402C2.30762 18.4348 2.26596 18.4284 2.22445 18.421C2.18295 18.4135 2.14166 18.4051 2.10056 18.3957C2.05947 18.3862 2.01863 18.3758 1.97804 18.3644C1.93542 18.3525 1.89311 18.3395 1.85112 18.3256C1.80913 18.3116 1.7675 18.2967 1.72624 18.2807C1.68498 18.2647 1.64414 18.2477 1.6037 18.2297C1.56327 18.2117 1.5233 18.1927 1.48379 18.1728C1.44428 18.1528 1.40529 18.1319 1.3668 18.1101C1.32831 18.0883 1.29037 18.0655 1.25299 18.0418C1.21561 18.0181 1.17883 17.9936 1.14266 17.9681C1.10647 17.9426 1.07093 17.9163 1.03604 17.889C1.00114 17.8618 0.966932 17.8337 0.933406 17.8049C0.899875 17.776 0.86707 17.7463 0.834992 17.7158C0.802909 17.6854 0.771588 17.6541 0.741031 17.6221C0.710473 17.5901 0.680713 17.5574 0.651752 17.5239C0.62279 17.4904 0.594661 17.4563 0.567364 17.4214C0.540067 17.3866 0.513635 17.3511 0.488069 17.315C0.462502 17.2789 0.43783 17.2422 0.414053 17.2049C0.390277 17.1675 0.367423 17.1297 0.345494 17.0912C0.220937 16.87 0.14617 16.6354 0.0799 16.3918C0.056128 16.3043 0.0421528 16.1862 0 16.1073V15.415Z" fill="#2085B1"/>
</svg>
