<svg width="40" height="40" viewBox="0 0 40 40" fill="none" xmlns="http://www.w3.org/2000/svg">
<path d="M4.01983 1.17986C4.80475 1.1553 5.5957 1.17547 6.38127 1.17547L34.7343 1.17535C35.2173 1.1747 35.7155 1.14767 36.1955 1.19768C36.2672 1.20497 36.3385 1.21492 36.4094 1.22753C36.4804 1.24014 36.5508 1.25538 36.6206 1.27324C36.6904 1.2911 36.7595 1.31153 36.8278 1.33454C36.8961 1.35755 36.9634 1.38306 37.0298 1.4111C37.0962 1.43913 37.1615 1.4696 37.2256 1.50249C37.2897 1.53539 37.3525 1.57063 37.414 1.60821C37.4755 1.6458 37.5355 1.68562 37.594 1.72767C37.6526 1.76974 37.7095 1.81392 37.7647 1.86021C37.8018 1.89097 37.8381 1.92264 37.8736 1.9552C37.9091 1.98777 37.9438 2.02119 37.9776 2.05549C38.0115 2.08977 38.0445 2.12488 38.0766 2.16081C38.1088 2.19674 38.14 2.23344 38.1702 2.27092C38.2005 2.3084 38.2299 2.3466 38.2583 2.38554C38.2867 2.42448 38.314 2.4641 38.3405 2.50439C38.3669 2.54469 38.3923 2.58562 38.4167 2.62718C38.4411 2.66874 38.4644 2.71088 38.4868 2.7536C38.5091 2.79633 38.5303 2.83957 38.5505 2.88335C38.5706 2.92712 38.5896 2.97137 38.6076 3.0161C38.6255 3.06081 38.6424 3.10595 38.658 3.15151C38.6738 3.19707 38.6883 3.24299 38.7018 3.28927C38.7152 3.33555 38.7274 3.38213 38.7386 3.42902C38.7497 3.47592 38.7596 3.52306 38.7683 3.57045C38.7771 3.61783 38.7848 3.6654 38.7912 3.71317C38.7976 3.76093 38.8028 3.80882 38.8068 3.85684C38.8634 4.51152 38.8274 5.19326 38.8271 5.85136L38.8269 34.4074C38.827 34.9843 38.8626 35.5893 38.8052 36.1633C38.7981 36.2383 38.7882 36.3128 38.7754 36.3869C38.7626 36.4611 38.7469 36.5346 38.7284 36.6076C38.7099 36.6805 38.6887 36.7526 38.6646 36.8239C38.6405 36.8952 38.6137 36.9655 38.5842 37.0348C38.5547 37.104 38.5226 37.172 38.4879 37.2388C38.4531 37.3055 38.4159 37.3708 38.3761 37.4347C38.3363 37.4986 38.2941 37.5609 38.2495 37.6215C38.2049 37.6821 38.1581 37.7409 38.109 37.7979C37.5734 38.4242 36.8344 38.7631 36.0212 38.8242C33.538 38.8567 31.051 38.8296 28.5674 38.8297L5.11687 38.8301C4.67887 38.8305 4.22305 38.8542 3.78751 38.8056C3.71396 38.7972 3.64083 38.7861 3.56812 38.7723C3.49542 38.7584 3.42334 38.7418 3.35188 38.7225C3.28042 38.7032 3.2098 38.6812 3.14 38.6566C3.0702 38.632 3.00143 38.6047 2.9337 38.5749C2.86596 38.545 2.79944 38.5127 2.73414 38.4778C2.66884 38.443 2.60496 38.4057 2.54248 38.366C2.47999 38.3264 2.41909 38.2844 2.35978 38.2401C2.30047 38.1958 2.24291 38.1494 2.1871 38.1007C2.15128 38.0699 2.11623 38.0382 2.08196 38.0056C2.04769 37.9731 2.01424 37.9397 1.9816 37.9056C1.94897 37.8714 1.91719 37.8364 1.88627 37.8007C1.85536 37.7649 1.82533 37.7284 1.7962 37.6912C1.76707 37.654 1.73887 37.6161 1.7116 37.5775C1.68433 37.5389 1.65802 37.4997 1.63268 37.4598C1.60733 37.4199 1.58298 37.3794 1.55962 37.3383C1.53626 37.2972 1.51392 37.2556 1.4926 37.2134C1.47128 37.1712 1.45101 37.1285 1.43178 37.0854C1.41256 37.0422 1.3944 36.9986 1.37731 36.9546C1.36023 36.9104 1.34423 36.866 1.32933 36.8211C1.31442 36.7763 1.30062 36.7311 1.28793 36.6856C1.27524 36.64 1.26368 36.5942 1.25323 36.5481C1.24279 36.5021 1.23348 36.4557 1.22531 36.4092C1.21714 36.3627 1.21011 36.3159 1.20423 36.269C1.19835 36.2221 1.19362 36.1751 1.19005 36.128C1.14016 35.4164 1.17537 34.6828 1.1757 33.9692L1.17499 5.40152C1.17496 4.8579 1.14365 4.29372 1.2031 3.75368C1.26865 3.15832 1.53566 2.59322 1.92983 2.14494C2.47112 1.52934 3.21474 1.23139 4.01983 1.17986ZM19.4149 4.05237C19.284 4.05619 19.1531 4.06163 19.0223 4.0687C18.8915 4.07576 18.7609 4.08443 18.6303 4.09472C18.4997 4.10501 18.3692 4.11692 18.239 4.13043C18.1087 4.14395 17.9786 4.15907 17.8487 4.1758C17.7188 4.19253 17.5891 4.21087 17.4596 4.23081C17.3302 4.25074 17.201 4.27227 17.072 4.2954C16.9431 4.31854 16.8145 4.34326 16.6862 4.36956C16.5579 4.39588 16.4299 4.42377 16.3022 4.45324C16.1746 4.48271 16.0474 4.51376 15.9205 4.54638C15.7937 4.579 15.6673 4.61318 15.5412 4.64892C15.4152 4.68467 15.2897 4.72197 15.1646 4.76081C15.0395 4.79966 14.9149 4.84005 14.7908 4.88198C14.6667 4.92391 14.5432 4.96736 14.4201 5.01234C14.2971 5.05732 14.1747 5.10382 14.0528 5.15183C13.9309 5.19984 13.8097 5.24935 13.689 5.30035C13.5684 5.35136 13.4484 5.40385 13.329 5.45782C13.2097 5.5118 13.0911 5.56724 12.9731 5.62414C12.8551 5.68105 12.7378 5.7394 12.6213 5.7992C12.5048 5.85901 12.389 5.92025 12.274 5.98292C12.159 6.04558 12.0448 6.10966 11.9313 6.17515C11.8179 6.24064 11.7053 6.30752 11.5935 6.3758C11.4817 6.44407 11.3707 6.51371 11.2607 6.58473C11.1506 6.65575 11.0415 6.72812 10.9332 6.80183C10.8249 6.87554 10.7176 6.95059 10.6112 7.02696C10.5048 7.10332 10.3993 7.181 10.2948 7.25997C10.1903 7.33894 10.0868 7.4192 9.98428 7.50074C9.88178 7.58227 9.7803 7.66506 9.67983 7.7491C9.57936 7.83316 9.47993 7.91844 9.38155 8.00495C9.28321 8.0914 9.18595 8.17909 9.08975 8.26799C8.99355 8.3569 8.89847 8.44698 8.80451 8.53823C8.71056 8.62953 8.61774 8.72195 8.52608 8.81549C8.43436 8.90904 8.34384 9.0037 8.25452 9.09948C8.16571 9.19411 8.07808 9.28982 7.99162 9.38659C7.90517 9.48336 7.81992 9.5812 7.73587 9.6801C7.65182 9.77896 7.56898 9.87883 7.48737 9.97971C7.40575 10.0806 7.32539 10.1825 7.24627 10.2853C7.16715 10.3882 7.08929 10.492 7.01271 10.5968C6.93613 10.7016 6.86084 10.8072 6.78685 10.9139C6.71286 11.0205 6.64018 11.128 6.56881 11.2364C6.49745 11.3447 6.42742 11.454 6.35873 11.5641C6.29003 11.6742 6.2227 11.7851 6.15673 11.8968C6.09075 12.0086 6.02615 12.1211 5.96293 12.2345C5.89971 12.3478 5.83788 12.4619 5.77744 12.5767C5.71701 12.6915 5.65799 12.8071 5.60039 12.9234C5.54279 13.0397 5.48662 13.1567 5.43188 13.2743C5.37714 13.392 5.32384 13.5103 5.272 13.6292C5.22016 13.7482 5.16977 13.8678 5.12085 13.988C5.07193 14.1082 5.02449 14.229 4.97853 14.3503C4.93257 14.4717 4.8881 14.5936 4.84512 14.716C4.80213 14.8385 4.76066 14.9614 4.72069 15.0849C4.68071 15.2084 4.64226 15.3323 4.60532 15.4567C4.56838 15.5811 4.53297 15.7059 4.49909 15.8312C4.4652 15.9565 4.43285 16.0821 4.40205 16.2082C4.37123 16.3343 4.34197 16.4607 4.31426 16.5874C4.28654 16.7142 4.26038 16.8413 4.23577 16.9688C4.21117 17.0962 4.18813 17.2239 4.16665 17.3518C4.14517 17.4798 4.12526 17.608 4.10691 17.7365C4.08857 17.865 4.0718 17.9937 4.05661 18.1225C4.04142 18.2514 4.0278 18.3804 4.01577 18.5096C4.00373 18.6389 3.99328 18.7682 3.98441 18.8977C3.97553 19.0272 3.96824 19.1567 3.96255 19.2864C3.95684 19.416 3.95273 19.5457 3.9502 19.6754C3.94768 19.8052 3.94674 19.9349 3.94738 20.0647C3.94803 20.1945 3.95027 20.3242 3.95409 20.4539C3.95777 20.5848 3.96305 20.7157 3.96995 20.8464C3.97685 20.9772 3.98537 21.1078 3.99549 21.2384C4.00561 21.3689 4.01734 21.4993 4.03069 21.6296C4.04403 21.7598 4.05897 21.8899 4.07552 22.0198C4.09206 22.1497 4.11021 22.2793 4.12995 22.4088C4.1497 22.5383 4.17104 22.6674 4.19397 22.7964C4.2169 22.9253 4.24141 23.0539 4.26752 23.1822C4.29362 23.3105 4.3213 23.4385 4.35056 23.5661C4.37982 23.6937 4.41065 23.821 4.44305 23.9478C4.47544 24.0747 4.5094 24.2012 4.54491 24.3272C4.58043 24.4533 4.6175 24.5788 4.65611 24.7039C4.69472 24.829 4.73487 24.9537 4.77656 25.0778C4.81825 25.202 4.86146 25.3255 4.90619 25.4486C4.95093 25.5716 4.99718 25.6941 5.04494 25.816C5.09269 25.938 5.14194 26.0593 5.19269 26.18C5.24344 26.3007 5.29567 26.4208 5.34937 26.5402C5.40308 26.6596 5.45826 26.7784 5.5149 26.8964C5.57153 27.0145 5.62962 27.1318 5.68915 27.2485C5.74868 27.3651 5.80965 27.4809 5.87203 27.596C5.93442 27.7112 5.99822 27.8255 6.06343 27.9391C6.12864 28.0526 6.19524 28.1653 6.26323 28.2772C6.33122 28.3891 6.40058 28.5002 6.4713 28.6104C6.54203 28.7206 6.61411 28.8299 6.68754 28.9383C6.76096 29.0467 6.83571 29.1542 6.91179 29.2608C6.98786 29.3674 7.06524 29.473 7.14392 29.5777C7.2226 29.6823 7.30256 29.786 7.3838 29.8887C7.46504 29.9914 7.54753 30.0931 7.63127 30.1937C7.71502 30.2944 7.79998 30.394 7.88616 30.4925C7.97241 30.5911 8.05983 30.6886 8.14842 30.785C8.23702 30.8814 8.32678 30.9767 8.41772 31.0709C8.50871 31.1651 8.60082 31.2582 8.69405 31.3501C8.78733 31.442 8.8817 31.5328 8.97717 31.6224C9.0717 31.7116 9.1673 31.7996 9.26397 31.8865C9.36063 31.9734 9.45834 32.059 9.55709 32.1435C9.65584 32.2279 9.75564 32.3112 9.85647 32.3932C9.95725 32.4753 10.059 32.556 10.1619 32.6356C10.2646 32.7151 10.3683 32.7934 10.473 32.8703C10.5778 32.9474 10.6834 33.0231 10.79 33.0974C10.8965 33.1719 11.004 33.245 11.1123 33.3167C11.2207 33.3885 11.3299 33.4589 11.44 33.528C11.55 33.5971 11.6609 33.6649 11.7726 33.7313C11.8844 33.7976 11.997 33.8626 12.1103 33.9262C12.2236 33.9898 12.3377 34.0521 12.4526 34.1129C12.5674 34.1737 12.683 34.2332 12.7993 34.2911C12.9156 34.3491 13.0326 34.4057 13.1503 34.4608C13.268 34.5159 13.3863 34.5696 13.5053 34.6218C13.6243 34.6741 13.7439 34.7248 13.8642 34.7741C13.9845 34.8234 14.1053 34.8712 14.2267 34.9175C14.3482 34.9639 14.4701 35.0087 14.5926 35.0521C14.7152 35.0954 14.8382 35.1372 14.9618 35.1776C15.0853 35.2179 15.2093 35.2567 15.3338 35.294C15.4583 35.3313 15.5833 35.3671 15.7087 35.4013C15.834 35.4355 15.9598 35.4682 16.086 35.4993C16.2121 35.5305 16.3387 35.5601 16.4656 35.5882C16.5925 35.6162 16.7197 35.6427 16.8472 35.6676C16.9748 35.6926 17.1026 35.7159 17.2308 35.7377C17.3589 35.7595 17.4872 35.7797 17.6158 35.7984C17.7445 35.817 17.8733 35.8341 18.0023 35.8496C18.1314 35.8651 18.2606 35.879 18.39 35.8913C18.5194 35.9036 18.6489 35.9144 18.7785 35.9235C18.9081 35.9327 19.0379 35.9403 19.1677 35.9463C19.2976 35.9522 19.4274 35.9566 19.5573 35.9594C19.6873 35.9622 19.8172 35.9634 19.9472 35.963C20.0772 35.9626 20.2071 35.9607 20.337 35.9571L20.3856 35.9556C20.5145 35.9517 20.6432 35.9463 20.7719 35.9393C20.9006 35.9323 21.0292 35.9238 21.1577 35.9138C21.2862 35.9037 21.4145 35.892 21.5427 35.8788C21.6709 35.8656 21.799 35.8509 21.9269 35.8346C22.0547 35.8183 22.1823 35.8004 22.3098 35.781C22.4371 35.7616 22.5643 35.7407 22.6912 35.7182C22.8182 35.6957 22.9448 35.6716 23.0711 35.6461C23.1974 35.6205 23.3234 35.5935 23.449 35.5649C23.5747 35.5362 23.7 35.5061 23.825 35.4745C23.9499 35.4428 24.0745 35.4096 24.1986 35.3749C24.3227 35.3403 24.4464 35.3042 24.5697 35.2665C24.693 35.2288 24.8157 35.1896 24.938 35.149C25.0604 35.1083 25.1822 35.0662 25.3034 35.0226C25.4247 34.979 25.5455 34.934 25.6657 34.8874C25.7859 34.8409 25.9055 34.793 26.0245 34.7435C26.1435 34.6941 26.2619 34.6432 26.3797 34.5909C26.4976 34.5386 26.6147 34.4849 26.7312 34.4297C26.8477 34.3746 26.9635 34.3181 27.0787 34.2601C27.1938 34.2021 27.3082 34.1428 27.4219 34.0821C27.5356 34.0214 27.6485 33.9593 27.7607 33.8958C27.8728 33.8324 27.9842 33.7675 28.0948 33.7014C28.2055 33.6352 28.3152 33.5677 28.4242 33.4989C28.5332 33.4301 28.6413 33.3599 28.7486 33.2885C28.8559 33.2171 28.9622 33.1443 29.0677 33.0703C29.1732 32.9962 29.2778 32.921 29.3815 32.8444C29.4852 32.7678 29.5879 32.69 29.6898 32.611C29.7915 32.5319 29.8923 32.4516 29.9922 32.3702C30.092 32.2887 30.1909 32.206 30.2887 32.1221C30.3866 32.0382 30.4834 31.9531 30.5792 31.8668C30.675 31.7806 30.7697 31.6932 30.8633 31.6046C30.957 31.5161 31.0496 31.4264 31.1411 31.3356C31.2325 31.2449 31.3229 31.153 31.4122 31.06C31.5038 30.9651 31.5942 30.8691 31.6834 30.7719C31.7726 30.6748 31.8607 30.5765 31.9475 30.4772C32.0343 30.3778 32.1198 30.2774 32.204 30.176C32.2883 30.0745 32.3713 29.972 32.4531 29.8685C32.5348 29.7649 32.6153 29.6604 32.6944 29.5549C32.7736 29.4493 32.8514 29.3429 32.9279 29.2354C33.0043 29.1279 33.0795 29.0195 33.1533 28.9102C33.2271 28.8009 33.2995 28.6906 33.3705 28.5795C33.4416 28.4683 33.5112 28.3563 33.5795 28.2435C33.6478 28.1306 33.7146 28.0169 33.7801 27.9024C33.8455 27.7878 33.9095 27.6725 33.9721 27.5564C34.0346 27.4402 34.0958 27.3233 34.1555 27.2057C34.2151 27.0881 34.2733 26.9697 34.3301 26.8506C34.3868 26.7315 34.442 26.6117 34.4958 26.4913C34.5495 26.3708 34.6017 26.2497 34.6525 26.1279C34.7032 26.0061 34.7524 25.8838 34.8001 25.7608C34.8478 25.6378 34.8939 25.5142 34.9386 25.3901C34.9832 25.266 35.0262 25.1413 35.0677 25.0161C35.1092 24.8909 35.1492 24.7652 35.1876 24.639C35.226 24.5128 35.2628 24.3861 35.298 24.259C35.3333 24.1319 35.3669 24.0043 35.399 23.8764C35.4311 23.7485 35.4615 23.6201 35.4905 23.4914C35.5193 23.3627 35.5466 23.2337 35.5723 23.1042C35.5979 22.9749 35.622 22.8452 35.6444 22.7152C35.6669 22.5852 35.6877 22.455 35.7069 22.3245C35.7261 22.194 35.7437 22.0632 35.7596 21.9323C35.7756 21.8014 35.7899 21.6702 35.8026 21.5389C35.8153 21.4076 35.8263 21.2762 35.8358 21.1446C35.8452 21.0131 35.853 20.8814 35.8591 20.7496C35.8653 20.6179 35.8698 20.486 35.8726 20.3542C35.8755 20.2223 35.8768 20.0904 35.8764 19.9585C35.876 19.8266 35.8739 19.6947 35.8702 19.5628C35.8666 19.4317 35.8614 19.3006 35.8546 19.1696C35.8478 19.0385 35.8393 18.9076 35.8293 18.7767C35.8192 18.6459 35.8076 18.5152 35.7943 18.3846C35.781 18.2541 35.7661 18.1237 35.7496 17.9935C35.7331 17.8634 35.715 17.7334 35.6953 17.6037C35.6756 17.474 35.6543 17.3445 35.6314 17.2153C35.6085 17.0861 35.584 16.9572 35.5579 16.8286C35.5318 16.7 35.5041 16.5718 35.4748 16.4439C35.4456 16.3159 35.4148 16.1884 35.3824 16.0612C35.35 15.9341 35.316 15.8073 35.2805 15.681C35.2449 15.5547 35.2079 15.4289 35.1692 15.3035C35.1306 15.178 35.0904 15.0532 35.0487 14.9288C35.0069 14.8043 34.9637 14.6805 34.9189 14.5571C34.8741 14.4338 34.8278 14.311 34.78 14.1889C34.7322 14.0666 34.6829 13.945 34.6321 13.8241C34.5813 13.7031 34.5289 13.5828 34.4751 13.4631C34.4214 13.3434 34.3662 13.2244 34.3094 13.106C34.2527 12.9877 34.1945 12.8701 34.1349 12.7532C34.0753 12.6364 34.0142 12.5202 33.9517 12.4048C33.8892 12.2894 33.8253 12.1748 33.76 12.061C33.6947 11.9472 33.628 11.8343 33.5598 11.7221C33.4917 11.6099 33.4222 11.4986 33.3514 11.3882C33.2805 11.2778 33.2083 11.1682 33.1348 11.0596C33.0612 10.9509 32.9863 10.8432 32.9101 10.7364C32.8338 10.6295 32.7563 10.5237 32.6774 10.4188C32.5986 10.3139 32.5185 10.21 32.4371 10.1071C32.3557 10.0042 32.273 9.90232 32.1891 9.80143C32.1052 9.70055 32.02 9.6007 31.9337 9.5019C31.8473 9.40315 31.7596 9.30547 31.6708 9.20885C31.582 9.11224 31.4921 9.01674 31.4009 8.92237C31.3098 8.82799 31.2175 8.73474 31.124 8.6426C31.0306 8.55052 30.936 8.45958 30.8403 8.36979C30.7631 8.29703 30.6851 8.22508 30.6065 8.15393C30.5278 8.08273 30.4485 8.01234 30.3684 7.94276C30.2884 7.87318 30.2076 7.8044 30.1262 7.73643C30.0447 7.66846 29.9626 7.6013 29.8798 7.53497C29.7971 7.46864 29.7136 7.40314 29.6295 7.33848C29.5454 7.27381 29.4607 7.20999 29.3753 7.14703C29.2899 7.08406 29.2039 7.02195 29.1173 6.9607C29.0308 6.89945 28.9436 6.83907 28.8557 6.77956C28.7679 6.72005 28.6795 6.66143 28.5905 6.60369C28.5015 6.54595 28.412 6.48911 28.3219 6.43317C28.2317 6.37722 28.141 6.32218 28.0498 6.26804C27.9586 6.21391 27.8668 6.16069 27.7745 6.10839C27.6822 6.05609 27.5894 6.00472 27.4962 5.95428C27.4028 5.90383 27.309 5.85433 27.2147 5.80576C27.1204 5.75719 27.0256 5.70957 26.9304 5.6629C26.8351 5.61623 26.7394 5.57051 26.6432 5.52575C26.547 5.48099 26.4504 5.4372 26.3533 5.39438C26.2563 5.35155 26.1588 5.3097 26.0609 5.26882C25.9631 5.22794 25.8648 5.18805 25.7661 5.14913C25.6674 5.11022 25.5683 5.0723 25.4689 5.03537C25.3695 4.99844 25.2697 4.9625 25.1695 4.92757C25.0694 4.89263 24.9689 4.8587 24.868 4.82578C24.7671 4.79286 24.666 4.76094 24.5645 4.73004C24.4631 4.69913 24.3613 4.66925 24.2592 4.64038C24.1571 4.61151 24.0548 4.58367 23.9521 4.55685C23.8495 4.53003 23.7466 4.50424 23.6434 4.47948C23.5403 4.45471 23.4369 4.43098 23.3333 4.40828C23.2297 4.38559 23.1258 4.36393 23.0218 4.34331C22.9177 4.32269 22.8135 4.30312 22.709 4.28458C22.6046 4.26605 22.4999 4.24856 22.3951 4.23212C22.2903 4.21568 22.1854 4.20028 22.0803 4.18594C21.9752 4.1716 21.87 4.1583 21.7646 4.14606C20.9818 4.05606 20.2019 4.03671 19.4149 4.05237ZM34.1649 4.1457C33.7551 4.23339 33.4162 4.42226 33.1817 4.7801C32.9668 5.1082 32.8948 5.53109 32.9805 5.91312C32.9911 5.96029 33.004 6.00681 33.0192 6.0527C33.0344 6.09858 33.0518 6.14361 33.0715 6.18777C33.0912 6.23193 33.113 6.27501 33.1369 6.31702C33.1608 6.35902 33.1868 6.39973 33.2148 6.43917C33.2427 6.4786 33.2725 6.51656 33.3042 6.55304C33.336 6.58951 33.3694 6.62434 33.4046 6.65751C33.4398 6.69068 33.4765 6.72202 33.5148 6.75156C33.553 6.78109 33.5927 6.80866 33.6337 6.83426C33.9549 7.03536 34.3169 7.08489 34.687 7.02894C35.0905 6.93879 35.4341 6.71221 35.6561 6.36005C35.6816 6.31876 35.705 6.27632 35.7264 6.23271C35.7477 6.1891 35.7668 6.14455 35.7837 6.09905C35.8007 6.05355 35.8153 6.00732 35.8276 5.96037C35.84 5.91342 35.85 5.86598 35.8576 5.81803C35.8652 5.7701 35.8705 5.7219 35.8733 5.67344C35.8762 5.62498 35.8767 5.5765 35.8747 5.52799C35.8727 5.47949 35.8684 5.4312 35.8617 5.38312C35.855 5.33505 35.8459 5.28742 35.8344 5.24024C35.8233 5.19369 35.81 5.14779 35.7944 5.10256C35.7787 5.05732 35.7608 5.01297 35.7408 4.9695C35.7208 4.92603 35.6987 4.88365 35.6745 4.84236C35.6503 4.80107 35.6241 4.76108 35.5959 4.72238C35.5678 4.68368 35.5378 4.64646 35.5059 4.61073C35.4741 4.57499 35.4406 4.54092 35.4054 4.50849C35.3702 4.47608 35.3335 4.44547 35.2952 4.41668C35.257 4.38788 35.2174 4.36105 35.1765 4.33617C34.8594 4.14333 34.528 4.1165 34.1649 4.1457ZM5.33611 4.14653C4.92476 4.23635 4.58623 4.42781 4.35286 4.78874C4.14469 5.11071 4.07376 5.52666 4.1543 5.90075C4.15946 5.92457 4.1652 5.94824 4.17153 5.97178C4.17786 5.99531 4.18478 6.01867 4.19228 6.04186C4.19978 6.06505 4.20785 6.08803 4.21649 6.11081C4.22513 6.1336 4.23434 6.15616 4.24411 6.17849C4.25387 6.20081 4.26419 6.22288 4.27506 6.24469C4.28593 6.2665 4.29733 6.28803 4.30927 6.30928C4.32121 6.33052 4.33367 6.35145 4.34666 6.37207C4.35964 6.3927 4.37313 6.41298 4.38713 6.43293C4.40113 6.45288 4.41561 6.47247 4.43058 6.4917C4.44555 6.51093 4.46099 6.52977 4.47691 6.54823C4.49282 6.56669 4.50918 6.58474 4.52599 6.60238C4.5428 6.62003 4.56004 6.63724 4.57771 6.65402C4.59538 6.6708 4.61345 6.68714 4.63194 6.70302C4.65042 6.7189 4.66929 6.73431 4.68854 6.74925C4.70779 6.76419 4.7274 6.77865 4.74737 6.79261C4.76735 6.80657 4.78766 6.82003 4.8083 6.83299C5.12489 7.03208 5.49184 7.08774 5.85789 7.02979C6.25617 6.94292 6.60229 6.72091 6.82349 6.37471C6.84952 6.33369 6.87347 6.29147 6.89532 6.24807C6.91717 6.20467 6.93682 6.1603 6.95428 6.11495C6.97174 6.06961 6.98691 6.02351 6.9998 5.97666C7.01269 5.92981 7.02323 5.88244 7.03143 5.83455C7.03963 5.78665 7.04544 5.73847 7.04887 5.69C7.05229 5.64153 7.05332 5.59301 7.05194 5.54444C7.05055 5.49587 7.04677 5.44749 7.0406 5.39929C7.03443 5.35109 7.02589 5.30332 7.01498 5.25597C7.00437 5.20932 6.9915 5.16332 6.97635 5.11795C6.9612 5.07257 6.94386 5.02805 6.92433 4.98439C6.90479 4.94073 6.88315 4.89813 6.85941 4.8566C6.83568 4.81506 6.80996 4.7748 6.78225 4.73581C6.75455 4.69682 6.72499 4.65928 6.69358 4.6232C6.66217 4.58712 6.62907 4.55267 6.59426 4.51985C6.55946 4.48704 6.52313 4.45601 6.48527 4.42677C6.4474 4.39755 6.40819 4.37025 6.36764 4.34488C6.04726 4.14571 5.70559 4.1129 5.33611 4.14653ZM5.29991 32.9753C4.88748 33.077 4.54659 33.2836 4.32503 33.6562C4.12822 33.9872 4.07098 34.408 4.16697 34.7805C4.1792 34.8275 4.19372 34.8738 4.21055 34.9194C4.22737 34.965 4.24641 35.0097 4.26766 35.0534C4.28892 35.0971 4.31228 35.1396 4.33775 35.181C4.36322 35.2224 4.39068 35.2624 4.42012 35.3011C4.44957 35.3398 4.48085 35.3769 4.51397 35.4124C4.54709 35.448 4.5819 35.4818 4.61837 35.5139C4.65485 35.5461 4.69283 35.5763 4.7323 35.6046C4.77178 35.633 4.81257 35.6593 4.85466 35.6836C5.17303 35.8671 5.51413 35.9014 5.8731 35.8536C6.30127 35.7309 6.64882 35.5157 6.87127 35.1173C6.8943 35.0754 6.91524 35.0325 6.93408 34.9885C6.95292 34.9446 6.96957 34.8999 6.98404 34.8543C6.99851 34.8087 7.01072 34.7626 7.02068 34.7159C7.03064 34.6691 7.03829 34.622 7.04365 34.5745C7.049 34.527 7.05203 34.4793 7.05273 34.4315C7.05343 34.3838 7.0518 34.336 7.04784 34.2884C7.04389 34.2407 7.03761 34.1934 7.02902 34.1464C7.02044 34.0994 7.00959 34.0529 6.99646 34.0069C6.98327 33.9603 6.9678 33.9146 6.95005 33.8696C6.93229 33.8246 6.91233 33.7805 6.89018 33.7375C6.86803 33.6946 6.84379 33.6528 6.81746 33.6121C6.79113 33.5716 6.76285 33.5324 6.73261 33.4946C6.70236 33.4569 6.67032 33.4207 6.63647 33.3861C6.60261 33.3516 6.56712 33.3188 6.52999 33.2878C6.49287 33.2568 6.45429 33.2277 6.41425 33.2005C6.37422 33.1733 6.33293 33.1482 6.29039 33.1252C5.97335 32.9529 5.65249 32.9444 5.29991 32.9753ZM34.127 32.9746C33.7171 33.0761 33.3801 33.2753 33.1563 33.644C33.1315 33.6858 33.1087 33.7288 33.088 33.7728C33.0673 33.8169 33.0488 33.8619 33.0325 33.9078C33.0161 33.9536 33.002 34.0001 32.9902 34.0473C32.9784 34.0945 32.9689 34.1422 32.9617 34.1903C32.9545 34.2385 32.9497 34.2868 32.9472 34.3355C32.9447 34.3841 32.9445 34.4327 32.9467 34.4813C32.9489 34.5299 32.9534 34.5783 32.9604 34.6265C32.9673 34.6747 32.9765 34.7224 32.988 34.7697C32.9998 34.8165 33.0138 34.8626 33.0301 34.908C33.0464 34.9534 33.0649 34.9978 33.0855 35.0414C33.1062 35.085 33.129 35.1274 33.1538 35.1688C33.1787 35.2101 33.2056 35.2501 33.2344 35.2888C33.2632 35.3275 33.2938 35.3646 33.3262 35.4003C33.3587 35.4359 33.3929 35.4699 33.4287 35.5022C33.4645 35.5345 33.5018 35.5649 33.5407 35.5935C33.5795 35.6222 33.6196 35.6488 33.6611 35.6735C33.9817 35.8646 34.334 35.9044 34.6988 35.8533C35.1238 35.7321 35.475 35.5117 35.6957 35.1166C35.719 35.074 35.7401 35.0304 35.7591 34.9858C35.7781 34.9412 35.7949 34.8957 35.8094 34.8494C35.8239 34.8031 35.8361 34.7562 35.8459 34.7086C35.8558 34.6611 35.8633 34.6133 35.8684 34.565C35.8735 34.5168 35.8763 34.4684 35.8766 34.4199C35.877 34.3714 35.875 34.323 35.8705 34.2746C35.8661 34.2263 35.8593 34.1783 35.8501 34.1307C35.8409 34.0831 35.8294 34.036 35.8156 33.9895C35.802 33.9434 35.7862 33.8981 35.768 33.8535C35.7499 33.8091 35.7296 33.7656 35.7072 33.7231C35.6847 33.6806 35.6602 33.6393 35.6337 33.5992C35.6071 33.5592 35.5787 33.5205 35.5483 33.4833C35.5178 33.4461 35.4857 33.4104 35.4517 33.3764C35.4177 33.3424 35.3822 33.3102 35.3451 33.2797C35.3079 33.2492 35.2693 33.2207 35.2293 33.1941C35.1893 33.1674 35.1481 33.1428 35.1056 33.1203C34.783 32.9504 34.4826 32.9532 34.127 32.9746Z" fill="#2085B1"/>
<path d="M19.5476 17.3889C20.2723 17.3392 20.9727 17.52 21.549 17.9735C21.5853 18.0018 21.6208 18.031 21.6557 18.0612C21.6905 18.0913 21.7245 18.1223 21.7578 18.1541C21.7911 18.1859 21.8236 18.2185 21.8552 18.252C21.8869 18.2854 21.9177 18.3196 21.9476 18.3546C21.9776 18.3896 22.0066 18.4253 22.0348 18.4617C22.063 18.4981 22.0903 18.5352 22.1166 18.573C22.1429 18.6108 22.1683 18.6492 22.1926 18.6882C22.2171 18.7272 22.2405 18.7669 22.263 18.8071C22.2853 18.8473 22.3068 18.8881 22.3272 18.9293C22.3476 18.9706 22.3669 19.0124 22.3852 19.0546C22.4036 19.0969 22.4208 19.1396 22.437 19.1827C22.4532 19.2258 22.4682 19.2693 22.4822 19.3132C22.4963 19.357 22.5092 19.4012 22.521 19.4457C22.5328 19.4902 22.5435 19.535 22.5531 19.58C22.5627 19.6251 22.5711 19.6703 22.5784 19.7157C22.5858 19.7612 22.592 19.8068 22.597 19.8526C22.6023 19.898 22.6065 19.9436 22.6096 19.9892C22.6127 20.0349 22.6146 20.0806 22.6154 20.1264C22.6162 20.1721 22.6159 20.2178 22.6144 20.2635C22.613 20.3093 22.6104 20.3549 22.6067 20.4005C22.603 20.4461 22.5982 20.4916 22.5922 20.537C22.5863 20.5823 22.5792 20.6275 22.571 20.6725C22.5628 20.7175 22.5535 20.7623 22.5431 20.8069C22.5327 20.8514 22.5213 20.8957 22.5087 20.9397C22.496 20.9837 22.4824 21.0273 22.4676 21.0706C22.4529 21.1139 22.4371 21.1568 22.4203 21.1994C22.4034 21.242 22.3855 21.284 22.3665 21.3256C22.3476 21.3673 22.3276 21.4085 22.3067 21.4491C22.2857 21.4898 22.2637 21.5299 22.2408 21.5695C22.2178 21.6091 22.1939 21.648 22.169 21.6864C22.1441 21.7248 22.1183 21.7626 22.0916 21.7997C22.0648 21.8368 22.0372 21.8733 22.0087 21.909C21.9799 21.9453 21.9502 21.9809 21.9196 22.0157C21.889 22.0506 21.8576 22.0846 21.8253 22.1179C21.7931 22.1512 21.76 22.1837 21.7261 22.2153C21.6922 22.247 21.6576 22.2777 21.6222 22.3077C21.5868 22.3376 21.5507 22.3667 21.5138 22.3948C21.477 22.4229 21.4395 22.4501 21.4013 22.4764C21.3631 22.5027 21.3243 22.528 21.2849 22.5524C21.2454 22.5767 21.2054 22.6001 21.1648 22.6224C21.1242 22.6448 21.0831 22.6662 21.0415 22.6865C20.9998 22.7069 20.9577 22.7262 20.9151 22.7444C20.8725 22.7627 20.8294 22.7799 20.7859 22.796C20.7425 22.8121 20.6987 22.8272 20.6544 22.8411C20.6102 22.855 20.5657 22.8679 20.5208 22.8796C20.476 22.8914 20.4309 22.902 20.3855 22.9115C20.3402 22.921 20.2946 22.9293 20.2488 22.9366C20.203 22.9439 20.1571 22.95 20.111 22.9549C20.0687 22.9592 20.0263 22.9624 19.9839 22.9647C19.9414 22.967 19.899 22.9683 19.8565 22.9686C19.814 22.969 19.7715 22.9684 19.729 22.9668C19.6865 22.9652 19.6441 22.9627 19.6018 22.9592C19.5594 22.9557 19.5172 22.9512 19.4751 22.9457C19.4329 22.9403 19.3908 22.9339 19.349 22.9266C19.3071 22.9192 19.2655 22.9109 19.224 22.9017C19.1825 22.8924 19.1413 22.8823 19.1002 22.8711C19.0592 22.86 19.0184 22.848 18.978 22.8349C18.9375 22.822 18.8973 22.8081 18.8575 22.7933C18.8176 22.7785 18.7782 22.7628 18.739 22.7462C18.6999 22.7296 18.6612 22.7121 18.6229 22.6938C18.5845 22.6754 18.5466 22.6562 18.5092 22.6361C18.4718 22.616 18.4348 22.5951 18.3983 22.5733C18.3618 22.5515 18.3258 22.5289 18.2903 22.5055C18.2548 22.4821 18.2199 22.4579 18.1855 22.4329C18.1487 22.4064 18.1124 22.3789 18.0769 22.3506C18.0413 22.3222 18.0065 22.293 17.9724 22.263C17.9383 22.2329 17.905 22.2021 17.8724 22.1704C17.8398 22.1387 17.808 22.1062 17.777 22.0729C17.7461 22.0396 17.7159 22.0056 17.6866 21.9709C17.6574 21.9361 17.6289 21.9007 17.6014 21.8646C17.5738 21.8284 17.5472 21.7915 17.5215 21.7541C17.4957 21.7166 17.4709 21.6786 17.4471 21.6399C17.4232 21.6012 17.4003 21.5619 17.3784 21.5221C17.3565 21.4822 17.3356 21.4419 17.3157 21.401C17.2957 21.3602 17.2768 21.3189 17.259 21.2771C17.2411 21.2353 17.2242 21.1931 17.2084 21.1504C17.1926 21.1078 17.1779 21.0648 17.1642 21.0215C17.1505 20.9782 17.1379 20.9345 17.1264 20.8905C17.1149 20.8465 17.1044 20.8023 17.0951 20.7578C17.0857 20.7134 17.0775 20.6687 17.0704 20.6238C17.0629 20.5776 17.0566 20.5313 17.0515 20.4849C17.0464 20.4384 17.0425 20.3919 17.0397 20.3453C17.0369 20.2986 17.0352 20.2519 17.0347 20.2052C17.0342 20.1584 17.0349 20.1117 17.0367 20.065C17.0385 20.0183 17.0415 19.9717 17.0456 19.9251C17.0498 19.8786 17.0551 19.8322 17.0615 19.7859C17.068 19.7396 17.0756 19.6935 17.0844 19.6476C17.0931 19.6017 17.1029 19.556 17.114 19.5106C17.125 19.4652 17.1371 19.4201 17.1504 19.3753C17.1636 19.3304 17.178 19.286 17.1934 19.2419C17.2089 19.1978 17.2254 19.1541 17.243 19.1108C17.2607 19.0675 17.2794 19.0247 17.2991 18.9824C17.3189 18.94 17.3397 18.8982 17.3615 18.8568C17.3834 18.8155 17.4062 18.7748 17.4301 18.7346C17.454 18.6944 17.4788 18.6548 17.5047 18.6159C17.5305 18.5769 17.5573 18.5386 17.585 18.501C18.0777 17.8363 18.7437 17.5117 19.5476 17.3889Z" fill="#2085B1"/>
<path d="M18.8251 7.11795C20.7019 7.02017 22.9669 7.50975 24.5134 8.61503C25.0591 9.00495 25.6364 9.57917 25.7476 10.2721C25.7612 10.356 25.7714 10.453 25.7583 10.537C25.7207 10.7792 25.392 11.4239 25.2741 11.6842C24.5149 13.3608 23.6703 15.0252 22.5776 16.5121C22.4954 16.5195 22.1799 16.2794 22.0879 16.2279C21.9129 16.1293 21.7321 16.0426 21.5456 15.9679C21.359 15.8933 21.1684 15.8313 20.9737 15.782C20.0658 15.552 18.6884 15.6041 17.8691 16.092C17.8834 15.4975 17.7465 14.8678 17.6248 14.2895C17.3348 12.9131 16.9315 11.5551 16.5275 10.2086C16.4009 9.78659 16.0821 8.89081 16.0563 8.51674C16.0411 8.29581 16.1313 8.0637 16.2779 7.90065C16.756 7.36896 18.118 7.16956 18.8251 7.11795Z" fill="#2085B1"/>
<path d="M15.4002 21.6578L15.4383 21.662C15.4666 21.6856 15.7754 22.4031 15.8394 22.5174C15.8712 22.5737 15.9042 22.6294 15.9384 22.6843C15.9726 22.7393 16.0079 22.7935 16.0444 22.847C16.0809 22.9004 16.1186 22.9531 16.1573 23.0049C16.196 23.0568 16.2358 23.1078 16.2768 23.1579C16.3177 23.2081 16.3596 23.2573 16.4026 23.3057C16.4457 23.3541 16.4897 23.4016 16.5347 23.4481C16.5797 23.4945 16.6257 23.5401 16.6726 23.5846C16.7196 23.6292 16.7675 23.6727 16.8163 23.7152C16.8652 23.7577 16.9149 23.7991 16.9655 23.8396C17.016 23.8799 17.0674 23.9192 17.1197 23.9574C17.1719 23.9956 17.225 24.0327 17.2788 24.0687C17.3326 24.1046 17.3872 24.1394 17.4425 24.173C17.4978 24.2066 17.5538 24.2391 17.6105 24.2703C17.6672 24.3016 17.7245 24.3316 17.7824 24.3604C17.8404 24.3892 17.8989 24.4168 17.9581 24.4431C18.0172 24.4694 18.0769 24.4944 18.1371 24.5182C18.4124 24.6277 18.6965 24.7018 18.9813 24.781C18.9791 24.7837 18.977 24.7864 18.9748 24.7892C18.6367 25.1992 18.3959 25.766 18.1794 26.2475C17.5804 27.5798 17.0886 28.9644 16.606 30.3424C16.4554 30.7724 16.2491 31.497 16.0552 31.8617C15.9463 32.0666 15.7612 32.2403 15.5345 32.305C14.9208 32.4806 13.8362 31.9641 13.2896 31.6625C11.6115 30.678 10.0073 28.9647 9.30592 27.1322C9.04225 26.4436 8.8603 25.5711 9.18116 24.8689C9.23576 24.7495 9.31108 24.6259 9.41491 24.5438C9.6053 24.3931 10.0623 24.1605 10.2942 24.0285C11.4641 23.347 12.6713 22.7393 13.9156 22.2055C14.4042 21.9994 14.9049 21.8432 15.4002 21.6578Z" fill="#2085B1"/>
<path d="M23.8589 22.4863C23.8673 22.4892 23.8762 22.4909 23.8842 22.4949C23.9221 22.5141 24.5432 23.2131 24.654 23.3181C25.3933 24.0187 26.179 24.6649 26.9772 25.2968C27.5644 25.7595 28.156 26.2165 28.752 26.6678C29.0595 26.9027 29.409 27.1314 29.6869 27.3993C29.7912 27.4999 29.8871 27.614 29.9358 27.7524C30.0236 28.0024 29.9677 28.2655 29.8568 28.4976C29.0914 30.0992 27.0297 31.3229 25.415 31.9018C25.2944 31.9626 25.1357 32.0013 25.005 32.0417C24.2455 32.277 23.4009 32.4489 22.6038 32.3978C21.998 32.3589 21.2339 32.181 20.8258 31.6893C20.6484 31.4757 20.5721 30.8567 20.5109 30.5622C20.1862 28.9992 19.9112 27.4174 19.839 25.8203C19.8246 25.5014 19.7938 25.1679 19.8154 24.8499C20.2509 24.8235 20.6738 24.7862 21.0964 24.6676C21.1686 24.6467 21.2403 24.6241 21.3115 24.5998C21.3827 24.5754 21.4532 24.5494 21.5231 24.5217C21.593 24.4939 21.6622 24.4644 21.7307 24.4333C21.7992 24.4022 21.8669 24.3695 21.9337 24.3351C22.0006 24.3007 22.0666 24.2647 22.1318 24.2271C22.1969 24.1896 22.2611 24.1505 22.3244 24.1098C22.3876 24.0691 22.4499 24.0269 22.5111 23.9831C22.5723 23.9395 22.6325 23.8943 22.6915 23.8478C22.7505 23.8011 22.8083 23.7531 22.8651 23.7037C22.9218 23.6543 22.9772 23.6035 23.0315 23.5514C23.0857 23.4993 23.1387 23.446 23.1904 23.3913C23.242 23.3366 23.2923 23.2808 23.3412 23.2237C23.3902 23.1666 23.4377 23.1084 23.4839 23.0489C23.53 22.9896 23.5747 22.9291 23.618 22.8675C23.6611 22.806 23.7028 22.7434 23.743 22.6798C23.7832 22.6162 23.8218 22.5517 23.8589 22.4863Z" fill="#2085B1"/>
<path d="M30.0181 12.9736C30.115 12.9689 30.2082 12.9689 30.3038 12.9882C30.7651 13.0814 31.168 13.661 31.4098 14.0358C32.557 15.8142 32.9251 18.5471 32.4728 20.5967C32.2962 21.3971 31.9427 22.2847 31.2182 22.7406C31.1035 22.8128 30.9942 22.8629 30.8576 22.8747C30.5185 22.9039 30.1289 22.8251 29.7891 22.7875C28.6154 22.6578 27.426 22.506 26.2739 22.2411C25.8283 22.1592 25.3762 22.0399 24.9412 21.9147C24.6965 21.8442 24.4528 21.7556 24.2035 21.7046C24.3029 21.3836 24.3792 21.0587 24.4153 20.7242C24.4222 20.6608 24.4278 20.5972 24.4321 20.5335C24.4364 20.4698 24.4393 20.406 24.4408 20.3421C24.4425 20.2783 24.4427 20.2144 24.4416 20.1506C24.4405 20.0868 24.4381 20.023 24.4343 19.9592C24.4305 19.8955 24.4253 19.8318 24.4189 19.7683C24.4124 19.7048 24.4046 19.6414 24.3955 19.5782C24.3864 19.515 24.376 19.452 24.3642 19.3892C24.3524 19.3265 24.3393 19.264 24.3249 19.2018C24.3105 19.1396 24.2948 19.0778 24.2778 19.0162C24.2608 18.9546 24.2425 18.8935 24.223 18.8327C24.2034 18.7719 24.1825 18.7116 24.1604 18.6517C24.1383 18.5918 24.1149 18.5323 24.0903 18.4734C24.0657 18.4145 24.0399 18.3561 24.0128 18.2983C23.9857 18.2404 23.9574 18.1832 23.928 18.1266C23.8985 18.0699 23.8679 18.0139 23.836 17.9585C23.8042 17.9032 23.7712 17.8485 23.7371 17.7946C23.5751 17.5375 23.3858 17.3047 23.1951 17.0689C23.7246 16.9341 24.27 16.6056 24.7417 16.3346C25.9537 15.6385 27.1165 14.8459 28.2659 14.0514L29.1301 13.4507C29.339 13.3051 29.5557 13.1324 29.7906 13.0321C29.8624 13.0014 29.9417 12.988 30.0181 12.9736Z" fill="#2085B1"/>
<path d="M11.7732 11.5295C11.9813 11.5147 12.2545 11.5113 12.4403 11.6153C12.716 11.7699 13.0058 12.0841 13.2436 12.2995C14.5019 13.4393 15.7171 14.6388 16.7648 15.9781C16.8833 16.1296 17.073 16.3199 17.1221 16.5039C17.0851 16.5892 16.9255 16.6764 16.8501 16.7412C16.6765 16.8907 16.5137 17.0511 16.3615 17.2224C15.4451 18.2652 15.1736 19.483 15.2589 20.8383C14.7893 20.594 13.2109 20.4712 12.6312 20.441C11.676 20.3742 10.7198 20.3296 9.76256 20.3071C9.11327 20.2946 8.44553 20.3178 7.79948 20.2559C7.64434 20.241 7.4025 20.208 7.27341 20.1162C7.03776 19.9487 6.91752 19.7031 6.87373 19.4237C6.57609 17.5248 7.57628 15.3028 8.67366 13.8028C9.43194 12.7662 10.4556 11.7349 11.7732 11.5295Z" fill="#2085B1"/>
</svg>
