<svg width="40" height="40" viewBox="0 0 40 40" fill="none" xmlns="http://www.w3.org/2000/svg">
<path d="M19.9259 0.667957C20.1118 0.659474 20.2907 0.706286 20.43 0.834542C20.5051 0.903604 20.5634 0.990128 20.61 1.08036C20.7625 1.3756 20.8717 1.70157 21.0082 2.00542C21.2697 2.5814 21.549 3.14866 21.8459 3.70721C22.4297 4.81037 23.08 5.87714 23.718 6.94926C24.2657 7.86939 24.8185 8.799 25.2414 9.78463C25.6349 10.7012 25.9254 11.6385 25.986 12.6396C26.09 14.3603 25.5772 15.9936 24.4236 17.2886C23.3085 18.5402 21.7596 19.2401 20.0953 19.3383C19.0114 19.3464 17.8849 19.0073 16.9638 18.443C16.9203 18.4167 16.8772 18.3899 16.8345 18.3626C16.7917 18.3353 16.7493 18.3074 16.7072 18.279C16.6651 18.2506 16.6234 18.2217 16.5821 18.1923C16.5407 18.1629 16.4997 18.1329 16.4591 18.1025C16.4185 18.072 16.3782 18.0411 16.3384 18.0097C16.2986 17.9782 16.2591 17.9463 16.22 17.9139C16.181 17.8815 16.1423 17.8486 16.104 17.8153C16.0658 17.7819 16.028 17.748 15.9906 17.7138C15.9531 17.6794 15.9162 17.6447 15.8796 17.6095C15.8431 17.5743 15.807 17.5386 15.7713 17.5025C15.7356 17.4664 15.7004 17.4298 15.6657 17.3928C15.6309 17.3559 15.5965 17.3185 15.5627 17.2806C15.5289 17.2428 15.4955 17.2045 15.4626 17.1659C15.4297 17.1272 15.3974 17.0882 15.3654 17.0487C15.3335 17.0093 15.3021 16.9694 15.2711 16.9292C15.2402 16.8889 15.2097 16.8483 15.1798 16.8073C15.1499 16.7663 15.1204 16.7249 15.0915 16.6832C15.0626 16.6415 15.0342 16.5994 15.0064 16.557C14.9785 16.5146 14.9512 16.4718 14.9243 16.4288C14.8976 16.3856 14.8713 16.3422 14.8456 16.2985C14.8199 16.2547 14.7946 16.2106 14.77 16.1663C14.7453 16.1219 14.7212 16.0772 14.6977 16.0323C14.6742 15.9873 14.6512 15.942 14.6288 15.8965C14.6064 15.851 14.5845 15.8052 14.5632 15.7591C14.5419 15.713 14.5212 15.6667 14.5011 15.6201C14.481 15.5735 14.4614 15.5266 14.4425 15.4795C14.4235 15.4325 14.4051 15.3852 14.3873 15.3377C14.3695 15.2901 14.3523 15.2424 14.3357 15.1944C14.319 15.1464 14.303 15.0983 14.2875 15.0499C14.2721 15.0016 14.2573 14.9531 14.2431 14.9043C14.2289 14.8556 14.2152 14.8067 14.2022 14.7577C14.1892 14.7086 14.1768 14.6594 14.165 14.61C13.506 11.8302 14.8236 9.40541 16.197 7.09126C16.778 6.13328 17.3427 5.16572 17.891 4.18859C18.2587 3.52532 18.6012 2.84922 18.9183 2.16028C19.0899 1.78652 19.27 1.24158 19.4845 0.915042C19.5857 0.761088 19.756 0.705859 19.9259 0.667957Z" fill="#2085B1"/>
<path d="M26.091 24.0123C26.9341 23.9726 27.7646 24.03 28.602 24.1188C28.5779 24.5728 28.5234 25.03 28.4813 25.483L28.2533 27.932L27.5663 35.3333C27.0598 35.3694 26.5346 35.339 26.0257 35.3391L22.9575 35.3396L13.3741 35.3398C13.0863 35.3425 12.729 35.3853 12.452 35.3168C12.4453 35.3084 12.4368 35.3011 12.4321 35.2916C12.4054 35.2386 11.6214 26.7007 11.5747 25.9529C12.3439 26.3341 13.569 26.5657 14.426 26.6366C16.3188 26.793 18.2567 26.4754 20.0313 25.8179C22.1746 25.0238 23.7192 24.1157 26.091 24.0123Z" fill="#2085B1"/>
<path d="M6.53383 0.730988C6.62068 0.72401 6.71002 0.725709 6.79683 0.733111C6.82749 0.735817 6.85803 0.739596 6.88843 0.744448C6.91883 0.749301 6.94902 0.755216 6.979 0.762192C7.00899 0.769168 7.03869 0.777187 7.06811 0.78625C7.09753 0.795318 7.12659 0.805406 7.1553 0.816515C7.18402 0.82762 7.2123 0.839721 7.24016 0.85282C7.26802 0.865919 7.29539 0.879979 7.32226 0.895C7.34913 0.910021 7.37544 0.925969 7.40119 0.942844C7.42694 0.959713 7.45207 0.977469 7.47657 0.996109C7.50107 1.01475 7.52488 1.03423 7.54801 1.05454C7.57114 1.07485 7.59353 1.09595 7.61518 1.11784C7.63683 1.13973 7.65768 1.16235 7.67774 1.18571C7.6978 1.20906 7.71701 1.23309 7.73537 1.2578C7.75374 1.28251 7.77122 1.30783 7.78781 1.33376C7.80438 1.35969 7.82003 1.38617 7.83477 1.41321C7.84951 1.44025 7.86326 1.46777 7.87602 1.49577C7.88883 1.52377 7.90063 1.55219 7.91141 1.58102C8.03274 1.90876 8.03368 2.29123 8.06508 2.63657L8.17547 3.84528L8.58196 8.23076L10.3016 26.7874L10.8726 32.9541L11.0535 34.9188C11.0878 35.2938 11.1113 35.6743 11.163 36.0471C11.183 36.1913 11.2266 36.3254 11.3243 36.4365C11.4664 36.5978 11.6478 36.6495 11.8554 36.6607C12.1517 36.6767 12.4531 36.6665 12.7499 36.6662L14.3386 36.6644H19.1786L25.0759 36.6647L27.0025 36.665C27.3581 36.6652 27.7167 36.6754 28.072 36.662C28.237 36.6558 28.3842 36.652 28.5254 36.5572C28.6848 36.45 28.7766 36.308 28.8213 36.1221C28.8772 35.8901 28.8778 35.6289 28.8998 35.3909L29.0352 33.9324L29.5074 28.8388L31.2319 10.2369L31.7679 4.45017L31.9223 2.75848C31.9512 2.44316 31.9623 2.1123 32.0246 1.80216C32.0796 1.52793 32.2066 1.26405 32.4188 1.07662C32.7045 0.824203 33.0577 0.699686 33.4391 0.732284C33.4827 0.735846 33.5261 0.741544 33.5691 0.749378C33.6122 0.757211 33.6548 0.767142 33.6968 0.779171C33.7389 0.791198 33.7803 0.805266 33.821 0.821375C33.8617 0.837484 33.9015 0.855555 33.9404 0.875586C33.9793 0.895612 34.0171 0.917505 34.0538 0.941266C34.0906 0.965026 34.1261 0.990534 34.1603 1.01779C34.1946 1.04505 34.2274 1.07392 34.2588 1.10441C34.2902 1.1349 34.32 1.16686 34.3482 1.2003C34.386 1.24482 34.4206 1.2917 34.452 1.34094C34.4834 1.39018 34.5114 1.44132 34.5358 1.49437C34.5603 1.54741 34.581 1.60187 34.598 1.65774C34.615 1.71362 34.6282 1.77039 34.6374 1.82805C34.6981 2.2078 34.6128 2.64845 34.5766 3.03152C34.5308 3.49963 34.4881 3.96801 34.4482 4.43665C34.4063 4.73566 34.3891 5.04222 34.3612 5.34314L34.199 7.09531L33.7081 12.3951L32.2097 28.5713L31.7139 33.9228L31.5638 35.5529C31.5312 35.9096 31.5111 36.2747 31.4452 36.6269C31.4227 36.7485 31.3934 36.8685 31.3573 36.9868C31.3211 37.1051 31.2784 37.2209 31.2291 37.3344C31.1799 37.4479 31.1244 37.5582 31.0627 37.6653C31.0009 37.7725 30.9333 37.8758 30.8598 37.9753C30.3877 38.6224 29.5906 39.1631 28.7894 39.2842C28.2875 39.3601 27.7875 39.3517 27.2816 39.3518L25.7102 39.3521L20.2595 39.3524L14.513 39.3522L12.8203 39.352C12.3291 39.352 11.8413 39.3617 11.3527 39.3005C11.2838 39.2914 11.2152 39.2799 11.147 39.2663C11.0789 39.2527 11.0112 39.2369 10.9441 39.219C10.8769 39.201 10.8104 39.1809 10.7445 39.1586C10.6787 39.1364 10.6136 39.1121 10.5493 39.0856C10.485 39.0591 10.4217 39.0307 10.3592 39.0001C10.2968 38.9696 10.2354 38.9371 10.175 38.9026C10.1146 38.8681 10.0554 38.8318 9.99743 38.7935C9.93941 38.7552 9.88269 38.715 9.82727 38.6731C9.78399 38.6411 9.74152 38.608 9.69985 38.5739C9.65823 38.5398 9.61745 38.5046 9.57751 38.4685C9.53761 38.4324 9.4986 38.3953 9.46047 38.3572C9.4224 38.3192 9.38529 38.2802 9.34915 38.2404C9.31295 38.2005 9.27777 38.1597 9.2436 38.1181C9.20943 38.0765 9.17631 38.0341 9.14422 37.9908C9.11219 37.9476 9.0812 37.9035 9.05126 37.8588C9.02136 37.814 8.99258 37.7685 8.96493 37.7223C8.93727 37.6761 8.91076 37.6293 8.8854 37.5818C8.86003 37.5343 8.83586 37.4862 8.8129 37.4375C8.78993 37.3889 8.76816 37.3396 8.74758 37.2898C8.72701 37.2401 8.70769 37.1898 8.68961 37.1391C8.67154 37.0884 8.65472 37.0373 8.63915 36.9858C8.62357 36.9342 8.6093 36.8823 8.59633 36.8301C8.58331 36.7778 8.57159 36.7253 8.56118 36.6725C8.55076 36.6197 8.54165 36.5666 8.53383 36.5133C8.43227 35.8033 8.39219 35.0766 8.32571 34.362L7.94415 30.2469L6.78765 17.7617L5.8132 7.24242L5.49503 3.80816C5.44397 3.2528 5.35874 2.6819 5.34482 2.12552C5.33671 1.8012 5.41316 1.50951 5.61144 1.25007C5.84688 0.942 6.15411 0.783016 6.53383 0.730988Z" fill="#2085B1"/>
</svg>
