<svg width="40" height="40" viewBox="0 0 40 40" fill="none" xmlns="http://www.w3.org/2000/svg">
<path d="M6.62025 6.39544C6.64008 6.39466 6.65991 6.39414 6.67974 6.39387C7.39668 6.38215 8.11545 6.39217 8.83248 6.39216L12.9012 6.39217L25.1565 6.39241L30.9321 6.39189L32.5827 6.39178C32.9958 6.39185 33.4219 6.37569 33.8319 6.43369C33.9193 6.44668 34.0061 6.4631 34.0922 6.48296C34.1783 6.50282 34.2634 6.52606 34.3476 6.55268C34.4319 6.5793 34.515 6.60921 34.5969 6.64241C34.6787 6.67562 34.7591 6.71201 34.8381 6.75159C34.9171 6.79118 34.9944 6.83382 35.0701 6.87954C35.1456 6.92525 35.2193 6.97389 35.2911 7.02544C35.3628 7.077 35.4324 7.13132 35.4998 7.1884C35.5673 7.24547 35.6324 7.30513 35.6951 7.36737C35.7564 7.42825 35.8153 7.4914 35.8719 7.55681C35.9284 7.62222 35.9824 7.68971 36.0337 7.75926C36.085 7.82881 36.1336 7.90022 36.1794 7.97351C36.2253 8.04679 36.2683 8.12174 36.3083 8.19835C36.3484 8.27491 36.3856 8.35293 36.4197 8.43241C36.4538 8.51184 36.4848 8.59246 36.5126 8.67429C36.5406 8.75611 36.5653 8.83887 36.5869 8.92257C36.6084 9.00632 36.6267 9.09075 36.6418 9.17585C36.7451 9.76858 36.7003 10.4114 36.7001 11.0118L36.6995 13.8582L36.6993 22.3331L36.6991 25.1203C36.6991 25.6248 36.6845 26.1348 36.7042 26.6388C36.7144 26.8976 36.7751 27.1403 36.8912 27.3722C37.0751 27.7398 37.3697 28.0555 37.6283 28.3727L38.4562 29.391C38.6201 29.5923 38.8292 29.7971 38.9285 30.0398C38.9942 30.2003 38.9972 30.374 38.9984 30.5448C39.0049 31.4668 39.0362 32.2351 38.3334 32.9404C38.2975 32.9763 38.2605 33.011 38.2223 33.0444C38.1841 33.0779 38.1449 33.11 38.1045 33.1408C38.0642 33.1717 38.0229 33.2011 37.9805 33.2292C37.9382 33.2572 37.8951 33.2838 37.851 33.309C37.8069 33.3342 37.762 33.3579 37.7163 33.3801C37.6706 33.4022 37.6243 33.4228 37.5772 33.4419C37.5302 33.461 37.4826 33.4785 37.4344 33.4944C37.3861 33.5102 37.3374 33.5245 37.2883 33.5371C36.7631 33.668 36.1457 33.609 35.6062 33.6089L33.4083 33.6083H12.4958L6.14626 33.6077L4.23074 33.6097C3.8324 33.6104 3.42243 33.6301 3.02616 33.5894C2.96791 33.5838 2.90997 33.576 2.85235 33.5658C2.79472 33.5557 2.73759 33.5432 2.68096 33.5285C2.62433 33.5138 2.56837 33.4969 2.51309 33.4776C2.45781 33.4585 2.40338 33.4372 2.3498 33.4137C2.29622 33.3901 2.24367 33.3645 2.19214 33.3368C2.14061 33.3091 2.09026 33.2794 2.04109 33.2476C1.99193 33.2159 1.94411 33.1822 1.89764 33.1467C1.85116 33.1111 1.80617 33.0738 1.76267 33.0347C1.31165 32.6341 1.0477 32.0992 1.01189 31.497C0.991028 31.1463 0.9517 30.4236 1.05056 30.1037C1.12997 29.8467 1.34945 29.6187 1.51704 29.4137L2.43519 28.2934C2.69121 27.9805 3.01278 27.6469 3.18078 27.2775C3.28932 27.0389 3.32198 26.8004 3.33553 26.5405C3.36184 26.0355 3.34303 25.5209 3.34297 25.015L3.34215 22.1975L3.34249 13.6448L3.3416 10.8629C3.3415 10.3015 3.29989 9.7028 3.39047 9.14804C3.40335 9.07189 3.41888 8.99629 3.43704 8.92124C3.45521 8.84614 3.47598 8.77179 3.49934 8.69819C3.52271 8.6246 3.54862 8.55189 3.57707 8.48007C3.60553 8.4083 3.63645 8.3376 3.66986 8.26796C3.70326 8.19832 3.73905 8.12994 3.77723 8.0628C3.81542 7.99567 3.8559 7.92994 3.89868 7.86562C3.94147 7.80133 3.98644 7.73861 4.03361 7.67746C4.08077 7.6163 4.13002 7.55687 4.18135 7.49916C4.82718 6.77166 5.66568 6.44883 6.62025 6.39544ZM6.65296 9.67507L6.64882 26.7369C8.72686 26.7627 10.8074 26.7433 12.8858 26.7433L26.4273 26.7429C28.7341 26.7427 31.0434 26.7203 33.3499 26.7443L33.351 15.4319L33.3512 11.5919C33.3512 10.9597 33.3763 10.3169 33.3505 9.68593L14.2503 9.67952L8.92561 9.67983L7.41799 9.68147C7.16947 9.68202 6.89816 9.70866 6.65296 9.67507ZM16.7597 29.4814C16.6352 29.5208 16.5279 29.5886 16.4638 29.7062C16.3382 29.9366 16.3819 30.4426 16.4595 30.69C16.4703 30.7244 16.4828 30.7582 16.497 30.7913C16.5113 30.8244 16.5272 30.8568 16.5447 30.8883C16.5622 30.9198 16.5813 30.9503 16.6019 30.9799C16.6226 31.0095 16.6446 31.038 16.6682 31.0653C16.6917 31.0926 16.7166 31.1186 16.7428 31.1434C16.769 31.1682 16.7964 31.1916 16.825 31.2136C16.8536 31.2356 16.8832 31.2561 16.9138 31.2751C16.9445 31.294 16.976 31.3114 17.0085 31.3272C17.0798 31.3617 17.1537 31.3891 17.2303 31.4094C17.3068 31.4297 17.3846 31.4425 17.4636 31.448C17.7412 31.4694 18.0269 31.455 18.3056 31.4536L19.6997 31.4512L21.4988 31.4532C21.819 31.4537 22.1442 31.4658 22.4638 31.4507C22.5911 31.4447 22.7296 31.4294 22.8502 31.387C22.9134 31.3648 22.9929 31.3301 23.0471 31.291C23.3203 31.1154 23.5042 30.8603 23.5734 30.5398C23.6262 30.2953 23.6587 29.8813 23.5093 29.6683C23.4324 29.5586 23.3119 29.4991 23.1819 29.4788C22.9357 29.4405 22.6477 29.4671 22.3978 29.4672L20.8577 29.4673L18.2604 29.4674C17.7627 29.4673 17.2562 29.4469 16.7597 29.4814Z" fill="#2085B1"/>
</svg>
