<svg width="40" height="40" viewBox="0 0 40 40" fill="none" xmlns="http://www.w3.org/2000/svg">
<path d="M2.11091 30.8868C2.57905 30.842 3.07648 30.8732 3.54794 30.8735L6.23957 30.8739L14.8913 30.8754C14.8895 30.9228 14.8887 30.9701 14.889 31.0175C14.8877 31.5308 14.9879 31.9849 15.3642 32.3573C15.3918 32.3851 15.4204 32.4118 15.45 32.4375C15.4795 32.4631 15.51 32.4876 15.5414 32.511C15.5728 32.5344 15.6051 32.5565 15.6382 32.5775C15.6712 32.5984 15.7051 32.6181 15.7396 32.6365C15.7742 32.6549 15.8094 32.672 15.8452 32.6878C15.881 32.7035 15.9174 32.7179 15.9542 32.731C15.9912 32.744 16.0285 32.7557 16.0663 32.7659C16.1041 32.7762 16.1422 32.785 16.1807 32.7924C16.4859 32.8501 16.8198 32.8284 17.1298 32.8284L18.5029 32.8274L23.2737 32.8271C23.8198 32.824 24.2527 32.7378 24.6482 32.3321C25.0554 31.9146 25.1135 31.4398 25.1089 30.8797C26.0521 30.8593 26.9979 30.874 27.9414 30.8739H33.099H36.1925C36.72 30.8738 37.2664 30.843 37.7917 30.8822C37.9682 30.8954 38.1373 30.9376 38.2823 31.0443C38.45 31.1675 38.5538 31.3585 38.5792 31.5638C38.6064 31.7839 38.5532 32.0246 38.5043 32.2382C38.4806 32.3416 38.4543 32.4443 38.4252 32.5464C38.3961 32.6484 38.3643 32.7496 38.3299 32.8499C38.2954 32.9502 38.2583 33.0496 38.2186 33.148C38.1789 33.2463 38.1367 33.3436 38.0919 33.4398C38.0471 33.5359 37.9997 33.6308 37.9499 33.7245C37.9 33.8181 37.8478 33.9104 37.7931 34.0013C37.7383 34.0922 37.6813 34.1815 37.6218 34.2694C37.5624 34.3573 37.5007 34.4435 37.4368 34.5282C36.5677 35.7521 35.1216 36.6144 33.6526 36.8818C32.9575 37.0084 32.2365 36.9812 31.5327 36.9807L29.1494 36.98L20.6361 36.9802L11.4221 36.9807L8.65237 36.981C8.00003 36.981 7.33723 37.0048 6.68823 36.9292C6.56754 36.9143 6.44741 36.8958 6.32783 36.8736C6.20826 36.8515 6.08945 36.8258 5.97141 36.7966C5.85338 36.7673 5.73632 36.7346 5.62025 36.6983C5.50418 36.662 5.3893 36.6223 5.27561 36.5792C5.16192 36.536 5.04963 36.4895 4.93873 36.4396C4.82783 36.3897 4.71853 36.3365 4.61082 36.28C4.50311 36.2236 4.39719 36.1639 4.29305 36.1011C4.18892 36.0384 4.08677 35.9725 3.98659 35.9035C2.68155 34.9961 1.72098 33.5746 1.44379 32.0008C1.39591 31.729 1.3888 31.435 1.55918 31.2012C1.69566 31.0139 1.88766 30.9236 2.11091 30.8868Z" fill="#2085B1"/>
<path d="M6.19403 3.0352C6.31589 3.02456 6.43991 3.02249 6.56225 3.02152L25.3962 3.02208L31.0938 3.02169L32.7822 3.02121C33.2126 3.0213 33.6493 3.00633 34.0768 3.0642C34.1624 3.0763 34.2473 3.09183 34.3315 3.1108C34.4158 3.12976 34.4992 3.1521 34.5817 3.17781C34.6641 3.20351 34.7454 3.23251 34.8256 3.2648C34.9057 3.29708 34.9844 3.33254 35.0617 3.37119C35.1389 3.40983 35.2145 3.45154 35.2884 3.4963C35.3623 3.54106 35.4342 3.58873 35.5043 3.6393C35.5743 3.68988 35.6422 3.7432 35.7079 3.79927C35.7736 3.85533 35.8369 3.91396 35.8979 3.97515C35.9569 4.03406 36.0136 4.0952 36.0678 4.15858C36.1219 4.22195 36.1736 4.28736 36.2226 4.3548C36.2716 4.42225 36.3179 4.49152 36.3615 4.56262C36.4051 4.63373 36.4458 4.70644 36.4836 4.78075C36.5215 4.85506 36.5563 4.93075 36.5881 5.00781C36.62 5.08488 36.6487 5.16308 36.6744 5.24241C36.7001 5.32175 36.7226 5.40197 36.742 5.48308C36.7613 5.56419 36.7774 5.64593 36.7904 5.72832C36.8474 6.10624 36.8375 6.48916 36.8372 6.87014L36.8359 8.157V12.7083L36.8356 29.6862L33.8379 29.6847L13.5162 29.6845L6.75559 29.6846C5.55634 29.6846 4.35499 29.6704 3.15596 29.6882C3.17273 29.4559 3.16125 29.2157 3.16119 28.9824L3.16118 27.7366L3.16125 23.7879L3.16124 11.4994L3.16082 7.83614C3.1606 7.19355 3.11177 6.40294 3.2022 5.77704C3.21264 5.70171 3.22576 5.62686 3.24159 5.55248C3.25742 5.47811 3.2759 5.4044 3.29703 5.33135C3.31817 5.2583 3.34191 5.18611 3.36825 5.11477C3.39459 5.04344 3.42346 4.97314 3.45487 4.90389C3.48627 4.83463 3.52012 4.7666 3.55643 4.69978C3.59274 4.63297 3.6314 4.56755 3.67243 4.50351C3.71345 4.43949 3.75672 4.37702 3.80224 4.31611C3.84777 4.2552 3.89543 4.196 3.94521 4.13852C4.52193 3.46055 5.31798 3.10908 6.19403 3.0352ZM20.7538 6.2402L11.219 6.24258L7.90247 6.24273C7.39285 6.24281 6.87162 6.26803 6.36331 6.24633L6.36433 19.7774L6.36443 24.234L6.3649 25.6459C6.36511 25.9172 6.37632 26.1936 6.35893 26.4643C7.92395 26.4876 9.49106 26.4715 11.0562 26.4713L19.3261 26.4707L28.7756 26.4706H31.8544C32.4435 26.4706 33.0386 26.4532 33.6269 26.4802C33.6072 26.1897 33.6233 25.8916 33.6245 25.6003L33.6248 24.1713L33.6229 19.4058L33.6193 10.8125C33.6186 9.29067 33.6029 7.76704 33.6204 6.2453C31.736 6.21429 29.8479 6.2366 27.9632 6.23669L20.7538 6.2402Z" fill="#2085B1"/>
<path d="M19.1353 9.26384C19.4535 9.24962 19.7763 9.25868 20.0951 9.25813C20.3505 9.25767 20.6186 9.24024 20.8716 9.27188C20.9802 9.28556 21.094 9.3136 21.1871 9.37306C21.5033 9.57493 21.5072 10.189 21.5768 10.5339C21.6085 10.6911 21.6525 10.8595 21.7714 10.9749C21.8424 11.0438 21.9386 11.089 22.0273 11.1309C22.3562 11.286 22.6821 11.4253 22.991 11.6211C23.1854 11.7443 23.3567 11.8997 23.5491 12.0243C23.6487 12.0888 23.765 12.1406 23.8847 12.1468C24.2106 12.1637 24.708 11.8727 25.0531 11.8068C25.2224 11.7744 25.3866 11.7865 25.53 11.8899C25.6063 11.9449 25.6653 12.0174 25.7187 12.094C25.8607 12.2974 25.9685 12.531 26.0923 12.7466C26.2416 13.0064 26.4152 13.2609 26.5457 13.5302C26.5826 13.6065 26.6126 13.6863 26.6262 13.7703C26.7168 14.3268 25.8909 14.632 25.6187 15.0269C25.5531 15.1221 25.5247 15.2288 25.518 15.3434C25.4996 15.6538 25.5887 15.979 25.5894 16.2933C25.5904 16.6548 25.5051 17.0309 25.5285 17.3865C25.5351 17.488 25.5562 17.5868 25.614 17.6721C25.8551 18.0287 26.5527 18.3231 26.6258 18.7579C26.6456 18.8759 26.6198 18.987 26.5758 19.0964C26.4758 19.3452 26.3056 19.5817 26.1721 19.8159C26.0176 20.0868 25.8776 20.3843 25.6965 20.6374C25.1705 21.3726 24.4329 20.4492 23.7867 20.5735C23.5013 20.6284 23.1299 20.9952 22.8704 21.154C22.7063 21.2537 22.5367 21.3432 22.3616 21.4223C22.2042 21.4916 22.0083 21.5498 21.8683 21.649C21.3937 21.9857 21.6303 22.763 21.3184 23.2025C21.2159 23.347 21.0811 23.4024 20.9133 23.4349C20.5582 23.4504 20.2006 23.4445 19.8451 23.4461C19.6006 23.4472 19.3397 23.4641 19.0972 23.4334C18.9976 23.4208 18.9075 23.4024 18.8217 23.3479C18.4806 23.1312 18.4874 22.4812 18.4097 22.1161C18.3784 21.9691 18.3208 21.8159 18.2051 21.7142C18.0405 21.5696 17.3913 21.3121 17.1518 21.1712C16.8897 21.017 16.6708 20.8149 16.4151 20.6588C15.9762 20.3906 15.3926 20.8145 14.9512 20.9109C14.7917 20.9459 14.6557 20.9452 14.5163 20.8525C14.4261 20.7925 14.3532 20.7134 14.2901 20.6259C14.15 20.432 13.3931 19.1241 13.3687 18.9709C13.2718 18.3624 14.1184 18.0743 14.4001 17.6385C14.4837 17.5092 14.4805 17.3381 14.4668 17.1896C14.4315 16.8081 14.3915 16.4451 14.4126 16.0601C14.4256 15.8224 14.4957 15.5511 14.4779 15.3185C14.47 15.2153 14.4326 15.116 14.3755 15.0302C14.138 14.6731 13.4494 14.3909 13.3694 13.9716C13.3473 13.8562 13.3705 13.7447 13.4103 13.636C13.5149 13.3501 13.7169 13.0796 13.869 12.8147C14.0162 12.5582 14.1424 12.2773 14.3154 12.0381C14.8022 11.3648 15.5986 12.2451 16.1998 12.1322C16.4858 12.0785 16.7982 11.7399 17.0558 11.5869C17.2455 11.4721 17.4409 11.3679 17.6419 11.2742C17.8049 11.1985 18.0072 11.1348 18.1532 11.0311C18.5963 10.7164 18.379 9.92431 18.6773 9.50407C18.7958 9.33712 18.9445 9.29345 19.1353 9.26384ZM19.7076 13.7381C19.0574 13.7811 18.4408 14.1125 18.0126 14.5985C17.9837 14.6314 17.9557 14.6649 17.9285 14.6991C17.9013 14.7334 17.8749 14.7682 17.8494 14.8038C17.824 14.8392 17.7994 14.8753 17.7756 14.9121C17.7519 14.9488 17.7291 14.9861 17.7072 15.024C17.6854 15.0618 17.6645 15.1002 17.6445 15.1391C17.6245 15.178 17.6055 15.2173 17.5875 15.2571C17.5695 15.297 17.5524 15.3372 17.5363 15.3778C17.5203 15.4185 17.5052 15.4595 17.4912 15.5009C17.4771 15.5424 17.4641 15.5841 17.4522 15.6261C17.4402 15.6681 17.4293 15.7105 17.4194 15.7531C17.4095 15.7957 17.4006 15.8384 17.3929 15.8814C17.3851 15.9244 17.3783 15.9676 17.3726 16.011C17.367 16.0544 17.3624 16.0978 17.3589 16.1414C17.3554 16.185 17.353 16.2286 17.3516 16.2723C17.3502 16.316 17.3499 16.3597 17.3507 16.4034C17.3515 16.4471 17.3534 16.4908 17.3563 16.5344C17.3592 16.578 17.3632 16.6216 17.3683 16.6651C17.3734 16.7086 17.3795 16.7519 17.3867 16.795C17.3939 16.8382 17.4022 16.8812 17.4116 16.9239C17.421 16.9667 17.4314 17.0092 17.4429 17.0514C17.4543 17.0936 17.4669 17.1355 17.4805 17.1771C17.494 17.2187 17.5086 17.26 17.5242 17.3009C17.5398 17.3418 17.5564 17.3822 17.574 17.4223C17.5917 17.4623 17.6103 17.5019 17.6299 17.5411C17.6495 17.5802 17.67 17.6188 17.6915 17.657C17.7131 17.6951 17.7355 17.7326 17.7589 17.7696C17.7823 17.8066 17.8066 17.843 17.8318 17.8788C17.857 17.9145 17.8831 17.9497 17.91 17.9842C17.9369 18.0187 17.9647 18.0525 17.9933 18.0856C18.0219 18.1187 18.0514 18.1511 18.0816 18.1827C18.1118 18.2144 18.1428 18.2452 18.1746 18.2753C18.2064 18.3054 18.2389 18.3347 18.2721 18.3632C18.8323 18.85 19.541 19.0418 20.2728 18.9849L20.3046 18.9824C21.0643 18.8542 21.7083 18.5116 22.1605 17.8713C22.1856 17.8352 22.2099 17.7985 22.2332 17.7612C22.2565 17.7238 22.2789 17.6859 22.3004 17.6475C22.3218 17.6091 22.3424 17.5702 22.3619 17.5308C22.3815 17.4914 22.4 17.4515 22.4176 17.4111C22.4352 17.3707 22.4518 17.33 22.4674 17.2888C22.483 17.2477 22.4975 17.2062 22.5111 17.1643C22.5246 17.1224 22.5371 17.0802 22.5486 17.0377C22.5601 16.9953 22.5705 16.9526 22.5799 16.9095C22.5893 16.8665 22.5976 16.8233 22.6048 16.7799C22.6121 16.7365 22.6182 16.693 22.6233 16.6492C22.6284 16.6055 22.6325 16.5617 22.6355 16.5178C22.6384 16.4739 22.6403 16.43 22.6411 16.3859C22.6419 16.3419 22.6416 16.298 22.6402 16.254C22.6389 16.21 22.6364 16.1661 22.6329 16.1222C22.6294 16.0783 22.6248 16.0345 22.6191 15.9909C22.6134 15.9473 22.6067 15.9038 22.5989 15.8605C22.5909 15.8177 22.5819 15.7752 22.5718 15.7329C22.5617 15.6907 22.5506 15.6487 22.5384 15.6069C22.5263 15.5652 22.5131 15.5238 22.4989 15.4827C22.4847 15.4416 22.4695 15.4009 22.4533 15.3606C22.437 15.3202 22.4198 15.2803 22.4016 15.2408C22.3834 15.2013 22.3642 15.1623 22.3441 15.1238C22.324 15.0853 22.3029 15.0473 22.2809 15.0098C22.2589 14.9723 22.236 14.9353 22.2122 14.899C22.1883 14.8626 22.1636 14.8269 22.138 14.7917C22.1124 14.7566 22.0859 14.7222 22.0586 14.6884C22.0313 14.6545 22.0032 14.6214 21.9742 14.589C21.9452 14.5565 21.9155 14.5249 21.885 14.4939C21.8545 14.4629 21.8232 14.4327 21.7912 14.4034C21.7591 14.3739 21.7264 14.3453 21.693 14.3175C21.6596 14.2897 21.6255 14.2628 21.5907 14.2367C21.5559 14.2106 21.5205 14.1854 21.4845 14.161C20.937 13.7876 20.3589 13.6874 19.7076 13.7381Z" fill="#2085B1"/>
</svg>
