<svg width="40" height="40" viewBox="0 0 40 40" fill="none" xmlns="http://www.w3.org/2000/svg">
<path d="M25.0009 30.0093C25.5268 29.9665 26.079 29.9993 26.6078 29.9996L29.6129 29.9995L35.0338 29.9991C36.0638 29.9991 37.0949 29.989 38.1248 30.0044L38.1245 31.9036C38.0874 32.432 37.912 32.8897 37.5157 33.2539C37.4779 33.2891 37.4386 33.3227 37.3979 33.3546C37.3572 33.3865 37.3153 33.4167 37.2721 33.4452C37.229 33.4736 37.1847 33.5002 37.1392 33.5249C37.0938 33.5497 37.0475 33.5725 37.0002 33.5934C36.9529 33.6143 36.9048 33.6332 36.856 33.6501C36.8071 33.667 36.7576 33.6818 36.7075 33.6945C36.6574 33.7073 36.6068 33.7179 36.5558 33.7265C36.5048 33.7351 36.4536 33.7415 36.402 33.7458C35.9228 33.7895 35.4136 33.7571 34.9308 33.7571L32.0449 33.7566L22.7749 33.7564L10.0445 33.7563L5.92864 33.7572C5.17447 33.7577 4.40874 33.7857 3.65612 33.7471C3.62516 33.7457 3.59427 33.7434 3.56343 33.7405C3.53259 33.7375 3.50184 33.7338 3.47118 33.7292C3.44053 33.7247 3.41 33.7195 3.37961 33.7134C3.34921 33.7075 3.31899 33.7007 3.28893 33.6931C3.25887 33.6856 3.22902 33.6774 3.19937 33.6684C3.16973 33.6594 3.14033 33.6496 3.11116 33.6391C3.082 33.6287 3.05312 33.6175 3.02452 33.6056C2.99591 33.5937 2.96761 33.5811 2.93963 33.5677C2.91165 33.5544 2.88402 33.5404 2.85673 33.5257C2.82945 33.5111 2.80255 33.4957 2.77603 33.4797C2.74951 33.4637 2.7234 33.447 2.6977 33.4297C2.67201 33.4124 2.64677 33.3944 2.62197 33.3759C2.59717 33.3573 2.57284 33.3381 2.54899 33.3183C2.52514 33.2985 2.5018 33.2781 2.47897 33.2572C2.45613 33.2363 2.43383 33.2148 2.41205 33.1927C2.39029 33.1707 2.36908 33.1481 2.34844 33.125C1.8135 32.525 1.87384 31.8337 1.8752 31.0836C1.87586 30.7241 1.86117 30.3599 1.88366 30.0013L9.80369 29.9985L13.0467 29.9986C13.5989 29.9986 14.1557 29.9836 14.7072 30.001C14.8031 30.004 14.9584 29.9984 15.037 30.0556C15.0436 30.0603 15.0498 30.0655 15.0562 30.0704C15.251 30.2194 15.4191 30.4145 15.5921 30.5885C16.0127 31.0118 16.426 31.4677 16.8748 31.8598C17.1482 31.8955 17.4401 31.8756 17.7163 31.8753L19.2214 31.8743L21.6975 31.875C22.1685 31.8751 22.6439 31.8885 23.1143 31.8671C23.2919 31.7149 23.4545 31.537 23.6197 31.3713L24.4759 30.5116C24.6446 30.3421 24.8103 30.1541 25.0009 30.0093Z" fill="#2085B1"/>
<path d="M4.85433 6.25719C4.94536 6.25364 5.03641 6.25115 5.12749 6.24972C7.36928 6.22446 9.61391 6.24891 11.8561 6.24894L25.1873 6.24906L31.9169 6.24901L33.9859 6.248C34.3824 6.24786 34.7962 6.22533 35.1908 6.26549C35.2436 6.27044 35.2962 6.27767 35.3484 6.28716C35.4007 6.29666 35.4524 6.30839 35.5036 6.32236C35.5548 6.33632 35.6053 6.35247 35.6552 6.3708C35.705 6.38914 35.7539 6.40959 35.802 6.43215C35.85 6.45472 35.897 6.47932 35.943 6.50594C35.9889 6.53257 36.0335 6.56113 36.077 6.59162C36.1205 6.62212 36.1625 6.65443 36.2032 6.68855C36.2439 6.72268 36.283 6.7585 36.3205 6.79601C36.3572 6.83199 36.3922 6.86943 36.4256 6.90835C36.4591 6.94727 36.4908 6.98751 36.5209 7.02909C36.551 7.07067 36.5793 7.11345 36.6058 7.1574C36.6322 7.20136 36.6568 7.24635 36.6795 7.29237C36.7022 7.3384 36.723 7.38529 36.7417 7.43305C36.7605 7.48082 36.7773 7.52928 36.792 7.57845C36.8066 7.62762 36.8192 7.67732 36.8298 7.72754C36.8403 7.77777 36.8487 7.82835 36.855 7.87929C36.89 8.15452 36.8772 8.43936 36.8771 8.71655L36.8759 9.98226L36.8761 14.2319L36.876 28.753C36.3065 28.7636 35.7358 28.7569 35.1661 28.7576L3.12298 28.7562C3.1399 28.1748 3.12555 27.5891 3.12559 27.0072L3.12569 23.6782L3.12576 13.6523L3.12539 9.85491C3.12536 9.26397 3.08316 8.45186 3.14774 7.88702C3.18795 7.53528 3.32106 7.22022 3.54116 6.94226C3.87545 6.5201 4.3286 6.31835 4.85433 6.25719ZM5.11787 7.50906C4.90391 7.52028 4.69969 7.53263 4.54286 7.69977C4.41584 7.83515 4.3926 7.98421 4.3819 8.16101C4.36036 8.51686 4.37526 8.88155 4.37529 9.23835L4.37573 11.2084L4.37633 17.2437L4.3756 23.6151L4.37537 25.6887C4.37537 26.0559 4.35985 26.4312 4.38003 26.7978C4.39002 26.9793 4.40684 27.1771 4.55023 27.3022C4.69012 27.4242 4.81248 27.4798 4.99777 27.4924C5.40008 27.5198 5.8123 27.5005 6.21594 27.4997L8.35587 27.4987H15.1974L34.911 27.4984C35.1204 27.4864 35.3166 27.4471 35.4635 27.2824C35.5882 27.1428 35.6129 26.9565 35.622 26.7765C35.6427 26.3655 35.6271 25.9479 35.6269 25.536L35.6255 23.2009L35.6253 16.0476L35.6254 10.7039L35.6269 9.07093C35.6273 8.74593 35.6416 8.41351 35.613 8.08983C35.598 7.92015 35.532 7.75347 35.3958 7.64471C35.2591 7.53554 35.0852 7.51941 34.9171 7.51319C34.3564 7.49245 33.7914 7.50717 33.2302 7.50754L30.2502 7.50868L21.0499 7.50858L10.428 7.50817L6.92453 7.50797C6.32355 7.50794 5.71835 7.49249 5.11787 7.50906Z" fill="#2085B1"/>
<path d="M32.7873 23.7559C33.3112 23.7247 33.8498 23.747 34.3749 23.7541L34.376 26.2531L33.4815 26.2568C33.2354 26.2605 32.9901 26.2674 32.7452 26.238C32.5588 26.0617 32.0034 25.5702 31.9069 25.372C31.8398 25.2343 31.8478 24.7755 31.8993 24.6331C31.9484 24.4975 32.6434 23.8241 32.7873 23.7559Z" fill="#2085B1"/>
<path d="M25.9126 25.0058C26.5174 24.9741 27.1338 24.9977 27.7399 24.9978C28.7016 24.9946 29.6634 24.9967 30.6251 25.0041C30.6231 25.2074 30.6132 25.416 30.6283 25.6187C30.65 25.9105 30.7942 26.0683 31.004 26.2496C30.5867 26.2483 30.169 26.2559 29.7517 26.2584C28.0351 26.2653 26.3186 26.2616 24.6021 26.2474C25.0001 25.9983 25.529 25.1852 25.9126 25.0058Z" fill="#2085B1"/>
<path d="M6.56468 8.75982C7.48296 8.72326 8.4104 8.74912 9.32977 8.74904L14.3669 8.7488L19.0188 8.74896C19.8852 8.74904 20.7606 8.72208 21.6256 8.76263C21.3381 8.96654 21.0789 9.28841 20.8286 9.53904L19.0833 11.283L17.4574 12.912C17.184 13.1859 16.9132 13.4944 16.616 13.7403C16.3298 13.7781 16.0234 13.7579 15.7341 13.7577L14.1654 13.7563L12.5508 13.7585C12.2033 13.7601 11.8401 13.7821 11.4953 13.7383C11.0481 13.314 10.6202 12.8662 10.1845 12.4301L7.85345 10.0983L7.06441 9.31138C6.90096 9.14544 6.74453 8.96904 6.57168 8.81294L6.55469 8.79779L6.56468 8.75982Z" fill="#2085B1"/>
<path d="M23.4124 8.75599C23.8933 8.7288 24.3844 8.74825 24.8664 8.74857L27.5236 8.7488C29.8062 8.74865 32.0927 8.71974 34.3749 8.75419L34.3761 22.5029C33.8439 22.5072 33.2732 22.5537 32.7454 22.4882C32.5376 22.301 32.3441 22.0908 32.1462 21.8929L31.0201 20.7661L30.0518 19.7997C29.8494 19.5981 29.6383 19.4011 29.451 19.1855C29.409 19.1373 29.3851 19.1049 29.3777 19.0397C29.3446 18.7506 29.3742 18.4267 29.3743 18.134C29.3726 17.5102 29.3743 16.8864 29.3796 16.2626C28.9694 16.2548 28.5323 16.2972 28.1268 16.2475L28.1261 18.7529L26.7638 18.7594C26.468 18.7606 26.1643 18.7753 25.8706 18.7381C25.2843 18.2101 24.776 17.5912 24.1852 17.0673L23.3122 17.9354C23.577 18.2533 23.9097 18.5413 24.2039 18.8358C24.5413 19.1737 24.8713 19.5545 25.2385 19.8569C25.289 19.8986 25.3424 19.9298 25.4048 19.9503C25.7236 20.0548 26.8036 19.9993 27.2009 19.9979C27.5489 19.9968 28.0618 19.9557 28.3888 20.0158C28.494 20.0351 28.5664 20.0797 28.6464 20.1491C28.8443 20.3208 29.0249 20.5272 29.2089 20.7144L30.0627 21.5679L31.0471 22.5512C31.2254 22.7296 31.4354 22.9099 31.5812 23.1158C31.5218 23.2804 31.1368 23.6214 30.9911 23.7403C30.5885 23.7945 30.1437 23.7568 29.7366 23.7565L27.0124 23.7554C26.5612 23.7553 26.085 23.7225 25.6374 23.765C25.5214 23.7761 25.3716 23.7958 25.2746 23.8623C25.0582 24.0104 24.8542 24.2601 24.6676 24.4469L23.5179 25.6008C23.3108 25.8089 23.1077 26.0361 22.8838 26.2257L22.8662 26.2403C22.6418 26.2698 22.4064 26.2581 22.1804 26.2578L21.1723 26.2561L17.6479 26.2561L5.62303 26.2563C5.65742 25.1938 5.6258 24.1203 5.62584 23.0565L5.62574 14.3996C5.62576 12.8076 5.60553 11.213 5.63334 9.62146C5.74199 9.77107 5.89175 9.89943 6.02266 10.0298L6.7177 10.7239L9.39902 13.4062L10.1455 14.1479C10.3054 14.3065 10.477 14.4617 10.6169 14.6383C10.6383 14.9115 10.6264 15.1927 10.6268 15.4667L10.6277 16.8788C10.6276 16.9918 10.6436 17.1447 10.5872 17.2462C10.467 17.4629 9.98254 17.8859 9.78629 18.0818L7.98168 19.8804C7.84105 20.0207 7.6322 20.1936 7.555 20.3801C7.44777 20.6391 7.50136 23.2327 7.50075 23.7459C7.91611 23.7493 8.33147 23.7501 8.74684 23.7482C8.7523 23.4122 8.71027 21.0484 8.77832 20.8905C8.80855 20.8204 8.86551 20.7574 8.91676 20.7011C9.30754 20.2727 9.7459 19.8704 10.1579 19.4616C10.4643 19.1576 10.7585 18.8265 11.0816 18.542C11.1358 18.4942 11.1878 18.4558 11.2564 18.4311C11.4524 18.491 13.528 20.7223 13.9285 21.0381C13.9348 21.043 13.9412 21.0479 13.9475 21.0528C14.2214 20.7544 14.5176 20.469 14.8094 20.1883C14.5423 19.8925 14.2456 19.6161 13.9636 19.3341C13.3282 18.699 12.6836 18.071 12.0554 17.4289C11.9979 17.3701 11.9125 17.2887 11.8909 17.2082C11.8372 17.0083 11.8759 15.3192 11.879 15.0004L15.183 14.9979C15.5012 14.9979 16.4475 14.956 16.7057 15.0285C16.9092 15.0858 19.1095 16.4264 19.3683 16.6065C19.3968 16.9958 19.3768 17.3994 19.3768 17.7904L19.3757 19.996C19.7911 19.9994 20.2065 20.0001 20.6218 19.9982L20.6263 17.6648C20.6265 17.2254 20.648 16.7739 20.6211 16.3358C20.6139 16.2184 20.5997 16.0745 20.5521 15.9668C20.5082 15.8672 20.399 15.7832 20.3122 15.7196C19.9193 15.4318 19.4189 15.1736 18.9966 14.9193C18.7066 14.7447 18.1765 14.3758 17.8836 14.2709C18.0773 14.0078 18.3451 13.7734 18.5763 13.542L19.7655 12.3521L22.0839 10.0338C22.4668 9.65091 22.8423 9.25458 23.2357 8.88286C23.2907 8.83083 23.3437 8.78896 23.4124 8.75599ZM24.3798 12.4965C24.3721 12.9129 24.378 13.3293 24.3758 13.7458C24.5934 13.7474 25.4631 13.7878 25.6096 13.7351L25.6195 13.7243C25.6275 13.3207 25.6179 12.9161 25.6296 12.5128C25.2673 12.5089 24.7182 12.5488 24.3798 12.4965ZM15.005 21.8715C14.9968 22.288 15.003 22.7043 15.0008 23.1208C15.2184 23.1224 16.0882 23.1628 16.2346 23.1101L16.2445 23.0993C16.2525 22.6957 16.2428 22.2911 16.2546 21.8878C15.8927 21.8837 15.3489 21.9246 15.005 21.8715Z" fill="#2085B1"/>
</svg>
