<svg width="40" height="40" viewBox="0 0 40 40" fill="none" xmlns="http://www.w3.org/2000/svg">
<path d="M19.2046 17.2958C19.3344 17.2765 19.4623 17.2718 19.5893 17.3106C19.6991 17.3442 19.7824 17.4108 19.867 17.4853C20.3771 17.9344 20.8659 18.4737 21.3504 18.9565L22.3771 19.9793C22.5658 20.1672 22.7647 20.3514 22.9432 20.549C22.9991 20.6108 23.0511 20.6762 23.0901 20.7501C23.1711 20.9037 23.1872 21.0728 23.1334 21.2385C23.0978 21.3483 23.0346 21.4455 22.961 21.5336C22.8227 21.6989 21.3529 23.1761 21.2273 23.2436L21.1898 23.2318C20.8541 22.8701 20.4903 22.5278 20.141 22.1787L18.1639 20.2026C17.8347 19.8735 17.4906 19.5512 17.1782 19.2065C17.5117 18.8383 17.8798 18.4923 18.2309 18.1406C18.4787 17.8924 18.7274 17.604 19.0059 17.3915C19.0669 17.345 19.1324 17.3199 19.2046 17.2958Z" fill="#2085B1"/>
<path d="M34.6154 3.77781C34.6374 3.77667 34.6592 3.77542 34.6812 3.77511C35.2093 3.76778 35.706 3.95325 36.0872 4.32292C36.1096 4.34462 36.1314 4.36688 36.1527 4.38967C36.174 4.41247 36.1948 4.43578 36.2149 4.4596C36.2351 4.48343 36.2546 4.50774 36.2736 4.53253C36.2925 4.55733 36.3108 4.58258 36.3285 4.60829C36.3462 4.634 36.3632 4.66013 36.3796 4.68668C36.396 4.71323 36.4118 4.74018 36.4268 4.76752C36.4418 4.79485 36.4562 4.82254 36.4699 4.85059C36.4835 4.87864 36.4965 4.90701 36.5088 4.9357C36.521 4.9644 36.5325 4.99338 36.5434 5.02264C36.5542 5.05191 36.5643 5.08143 36.5736 5.1112C36.583 5.14096 36.5916 5.17094 36.5995 5.20114C36.6073 5.23133 36.6144 5.26171 36.6208 5.29225C36.6271 5.3228 36.6327 5.35349 36.6375 5.38432C36.6424 5.41515 36.6464 5.44607 36.6497 5.4771C36.653 5.50813 36.6555 5.53922 36.6573 5.57038C36.659 5.60153 36.66 5.6327 36.6602 5.66391C36.6613 5.71523 36.6603 5.76651 36.6572 5.81776C36.654 5.869 36.6487 5.92002 36.6413 5.97082C36.6339 6.02162 36.6245 6.07203 36.6129 6.12204C36.6013 6.17205 36.5876 6.22149 36.5719 6.27036C36.5562 6.31923 36.5384 6.36736 36.5187 6.41475C36.4989 6.46214 36.4772 6.50863 36.4536 6.55421C36.43 6.59979 36.4045 6.64431 36.3772 6.68777C36.3499 6.73122 36.3208 6.77346 36.2899 6.81449C35.9849 7.22345 35.432 7.71359 35.0591 8.08589L32.6457 10.4988L26.826 16.3182C25.7885 17.3557 24.7377 18.383 23.7148 19.4348L23.4222 19.1457L21.0022 16.7333C21.2682 16.4257 21.5766 16.1429 21.8641 15.8554L23.3769 14.3431L28.1363 9.58324L31.7962 5.92322L32.8742 4.84449C33.1092 4.60888 33.3413 4.35339 33.601 4.14546C33.8841 3.91892 34.2599 3.81078 34.6154 3.77781Z" fill="#2085B1"/>
<path d="M14.1603 19.6758C14.2503 19.668 14.3405 19.6649 14.4309 19.6664C14.5017 19.6671 14.5725 19.6702 14.6433 19.6755C14.7139 19.6809 14.7844 19.6886 14.8546 19.6986C14.9248 19.7086 14.9946 19.7208 15.064 19.7354C15.1334 19.75 15.2023 19.7668 15.2705 19.7858C15.3388 19.8049 15.4064 19.8262 15.4734 19.8497C15.5402 19.8732 15.6063 19.8988 15.6715 19.9266C15.7367 19.9544 15.801 19.9843 15.8642 20.0163C15.9275 20.0483 15.9897 20.0824 16.0507 20.1185C16.6699 20.4873 17.2927 21.2122 17.8146 21.7329L19.751 23.6648C20.3982 24.3215 20.7808 25.1358 20.7688 26.0683C20.7685 26.1423 20.7656 26.2163 20.7601 26.2901C20.7547 26.364 20.7467 26.4375 20.7362 26.5108C20.7256 26.584 20.7126 26.6569 20.697 26.7293C20.6814 26.8016 20.6633 26.8734 20.6427 26.9445C20.6222 27.0156 20.5992 27.0859 20.5737 27.1554C20.5483 27.225 20.5205 27.2935 20.4903 27.3611C20.4601 27.4288 20.4276 27.4952 20.3928 27.5605C20.358 27.6259 20.321 27.69 20.2817 27.7527C19.91 28.3518 18.9741 29.1892 18.4534 29.7078L15.9935 32.1629C15.1789 32.9619 14.2123 33.444 13.0533 33.4286C11.9934 33.4145 11.0128 32.9779 10.2749 32.2218C10.2941 32.2214 10.3131 32.2206 10.3323 32.2205C10.7028 32.2186 11.1086 32.1269 11.4601 32.0172C12.0401 31.8363 13.2265 31.2247 13.5121 30.6535C13.5868 30.5043 13.6073 30.3289 13.5487 30.1708C13.4871 30.0051 13.3371 29.8553 13.1742 29.7886C12.6765 29.5849 12.3371 30.0426 11.9798 30.2967C11.7674 30.4479 11.5464 30.5644 11.3063 30.6647C11.1604 30.7237 11.0112 30.7722 10.8585 30.8101C10.7059 30.8482 10.5513 30.8753 10.3948 30.8917C10.053 30.9304 9.71648 30.9026 9.3796 30.8365C9.15226 30.7918 8.90015 30.7307 8.69726 30.6147C8.30343 30.3894 7.82515 29.7132 7.43396 29.4044C7.42769 29.3994 7.4213 29.3947 7.41498 29.3898C7.51191 29.3871 7.6086 29.3807 7.70505 29.3706C7.81673 29.3587 7.92786 29.3428 8.03843 29.3229C8.14895 29.303 8.25864 29.2792 8.36749 29.2515C8.47635 29.2238 8.58405 29.1922 8.69062 29.1568C8.79723 29.1214 8.90244 29.0822 9.00624 29.0392C9.10999 28.9962 9.2121 28.9496 9.31257 28.8994C9.41304 28.8492 9.51158 28.7954 9.60819 28.7381C9.70481 28.6808 9.79924 28.6201 9.89148 28.5561C9.98377 28.492 10.0736 28.4247 10.1611 28.3543C10.3082 28.2358 10.4648 28.1093 10.5805 27.9585C10.6947 27.8094 10.7608 27.6397 10.7322 27.4504C10.7287 27.4283 10.7241 27.4065 10.7184 27.3849C10.7126 27.3633 10.7058 27.3421 10.6979 27.3212C10.69 27.3003 10.681 27.2799 10.6709 27.26C10.6609 27.24 10.6499 27.2207 10.6378 27.2019C10.6258 27.1831 10.6128 27.1649 10.5989 27.1475C10.5849 27.13 10.5701 27.1133 10.5545 27.0974C10.5388 27.0815 10.5224 27.0664 10.5052 27.0522C10.488 27.0379 10.4701 27.0246 10.4515 27.0122C9.8732 26.6251 9.4678 27.2602 9.03874 27.534C8.70562 27.7466 8.31968 27.9146 7.93359 27.9989C7.33838 28.1289 6.32205 28.0936 5.80444 27.7417C5.60614 27.6069 5.43615 27.406 5.26734 27.2361L4.42461 26.3876C4.13306 26.0955 3.73887 25.764 3.49184 25.4479C3.41438 25.3488 3.36315 25.2484 3.34334 25.1234C3.33963 25.1005 3.33711 25.0775 3.3358 25.0543C3.33448 25.0311 3.33437 25.0079 3.33546 24.9847C3.33655 24.9616 3.33884 24.9385 3.34234 24.9156C3.34583 24.8926 3.35049 24.8699 3.35634 24.8475C3.36219 24.825 3.36919 24.8029 3.37734 24.7812C3.38549 24.7594 3.39474 24.7382 3.4051 24.7174C3.41546 24.6966 3.42687 24.6764 3.43932 24.6569C3.45178 24.6373 3.46522 24.6184 3.47963 24.6002C3.49054 24.5867 3.50197 24.5736 3.51392 24.561C3.52587 24.5484 3.53831 24.5363 3.55123 24.5247C3.56416 24.5131 3.57752 24.502 3.59134 24.4915C3.60514 24.4809 3.61935 24.4709 3.63396 24.4615C3.64857 24.4521 3.66353 24.4433 3.67885 24.4351C3.69416 24.4269 3.70978 24.4193 3.72571 24.4123C3.74163 24.4054 3.75781 24.3991 3.77423 24.3934C3.79066 24.3877 3.80729 24.3827 3.82412 24.3784C3.84095 24.3741 3.85792 24.3704 3.87504 24.3675C3.89216 24.3645 3.90937 24.3622 3.92667 24.3607C3.94398 24.3591 3.96132 24.3582 3.97869 24.358C3.99606 24.3578 4.01342 24.3583 4.03076 24.3595C4.04809 24.3607 4.06535 24.3625 4.08253 24.3651C4.09971 24.3677 4.11677 24.3709 4.1337 24.3749C4.15062 24.3789 4.16735 24.3835 4.18391 24.3887C4.20046 24.394 4.21677 24.4 4.23285 24.4065C4.50974 24.5222 4.7397 24.7935 5.00339 24.9489C5.81564 25.4273 6.96104 25.3824 7.74587 24.871C8.18116 24.5873 8.54335 24.1653 8.9078 23.7986L11.0251 21.6822C11.5063 21.2001 12.1111 20.5029 12.6779 20.1524C13.1346 19.87 13.6284 19.7254 14.1603 19.6758Z" fill="#2085B1"/>
<path d="M26.1902 22.4685C26.6195 22.4454 27.0687 22.5097 27.4774 22.6412C27.5339 22.6594 27.59 22.679 27.6456 22.6999C27.7011 22.7209 27.7561 22.7432 27.8106 22.7669C27.865 22.7905 27.9189 22.8155 27.9721 22.8419C28.0253 22.8682 28.0778 22.8958 28.1297 22.9247C28.1816 22.9537 28.2327 22.9838 28.2831 23.0153C28.3334 23.0467 28.383 23.0794 28.4317 23.1133C28.4805 23.1472 28.5284 23.1822 28.5754 23.2185C28.6224 23.2547 28.6685 23.2921 28.7137 23.3307C28.7589 23.3692 28.8031 23.4088 28.8463 23.4495C28.8895 23.4902 28.9317 23.532 28.9728 23.5747C29.014 23.6176 29.0541 23.6614 29.0931 23.7062C29.1321 23.7509 29.1699 23.7966 29.2066 23.8433C29.2434 23.8899 29.279 23.9375 29.3134 23.9858C29.3478 24.0342 29.381 24.0834 29.4129 24.1335C29.4449 24.1836 29.4756 24.2344 29.5051 24.2859C29.5345 24.3374 29.5627 24.3897 29.5895 24.4426C30.0524 25.3563 30.0736 26.3535 29.759 27.3157C30.5144 27.5656 31.1975 28.2352 31.5767 28.9199C31.6049 28.9714 31.6318 29.0235 31.6574 29.0763C31.683 29.1291 31.7073 29.1825 31.7302 29.2365C31.7532 29.2905 31.7749 29.345 31.7952 29.4001C31.8155 29.4551 31.8344 29.5106 31.852 29.5666C31.8696 29.6226 31.8858 29.6789 31.9006 29.7358C31.9153 29.7925 31.9287 29.8496 31.9407 29.907C31.9527 29.9645 31.9633 30.0222 31.9725 30.0801C31.9817 30.1381 31.9894 30.1963 31.9957 30.2546C32.002 30.3129 32.0069 30.3714 32.0103 30.4299C32.0138 30.4885 32.0157 30.5471 32.0163 30.6058C32.0168 30.6645 32.016 30.7231 32.0137 30.7818C32.0113 30.8404 32.0076 30.8989 32.0024 30.9574C31.9971 31.0158 31.9905 31.0741 31.9824 31.1322C31.9744 31.1903 31.9649 31.2482 31.954 31.3058C31.9431 31.3635 31.9308 31.4209 31.917 31.478C31.9033 31.535 31.8882 31.5917 31.8717 31.648C31.8549 31.705 31.8366 31.7616 31.8169 31.8177C31.7972 31.8739 31.7761 31.9295 31.7537 31.9846C31.7313 32.0397 31.7075 32.0942 31.6824 32.1482C31.6573 32.2021 31.6309 32.2554 31.6032 32.308C31.5755 32.3607 31.5465 32.4126 31.5163 32.4638C31.4859 32.515 31.4544 32.5655 31.4216 32.6151C31.3889 32.6648 31.3549 32.7136 31.3198 32.7616C31.2846 32.8096 31.2483 32.8567 31.2109 32.9029C31.1734 32.9491 31.1348 32.9943 31.0951 33.0387C31.0554 33.083 31.0146 33.1263 30.9728 33.1686C30.931 33.2109 30.8882 33.2521 30.8443 33.2923C30.8005 33.3325 30.7556 33.3716 30.7098 33.4096C30.664 33.4476 30.6173 33.4844 30.5698 33.5201C30.5222 33.5558 30.4737 33.5903 30.4244 33.6236C30.3751 33.6569 30.325 33.689 30.2741 33.7198C30.2233 33.7507 30.1717 33.7802 30.1194 33.8086C29.362 34.2201 28.3848 34.3758 27.5479 34.1311C27.3792 34.5393 27.075 34.9431 26.7544 35.2448C26.7114 35.2858 26.6674 35.3256 26.6224 35.3643C26.5775 35.403 26.5316 35.4406 26.4848 35.4771C26.438 35.5136 26.3902 35.5488 26.3416 35.5829C26.2931 35.617 26.2437 35.6499 26.1934 35.6815C26.1432 35.7131 26.0923 35.7435 26.0406 35.7726C25.9889 35.8018 25.9365 35.8296 25.8834 35.8561C25.8303 35.8826 25.7766 35.9078 25.7222 35.9316C25.6679 35.9555 25.613 35.978 25.5575 35.9991C25.502 36.0203 25.4461 36.04 25.3897 36.0583C25.3332 36.0767 25.2764 36.0936 25.2191 36.1092C25.1619 36.1247 25.1042 36.1388 25.0463 36.1515C24.9883 36.1642 24.93 36.1754 24.8715 36.1852C24.8129 36.195 24.7542 36.2033 24.6952 36.2102C24.6363 36.2171 24.5772 36.2225 24.518 36.2265C24.4588 36.2304 24.3995 36.2328 24.3402 36.2339C24.2808 36.2349 24.2215 36.2344 24.1622 36.2325C23.1826 36.1956 22.2909 35.7494 21.6281 35.0376C21.5423 34.9377 21.4575 34.8369 21.3737 34.7352C20.9368 35.0919 20.5389 35.4017 20.0021 35.5995C19.1571 35.9108 18.14 35.8753 17.3237 35.4883C16.8134 35.2464 16.3773 34.8945 16.0126 34.4655C15.9331 34.3719 15.8241 34.2517 15.7881 34.1329C15.7841 34.1197 15.7715 34.0651 15.7754 34.0543C15.7954 33.9977 16.268 33.6922 16.3588 33.6241C16.669 33.3917 16.9506 33.0894 17.225 32.8163L18.4331 31.6104L19.9531 30.095C20.2811 29.7683 20.6205 29.4476 20.9263 29.0998C21.1627 28.8308 21.3719 28.5481 21.5443 28.2335C22.1844 27.0658 22.2265 25.8019 21.8571 24.5462C22.257 24.5683 22.6603 24.6166 23.0306 24.7787C23.0664 24.6847 23.1061 24.5922 23.1495 24.5014C23.1929 24.4105 23.2399 24.3216 23.2906 24.2346C23.3412 24.1476 23.3953 24.0627 23.4528 23.9801C23.5103 23.8975 23.5711 23.8173 23.6352 23.7396C24.288 22.9436 25.1861 22.569 26.1902 22.4685Z" fill="#2085B1"/>
</svg>
