<svg width="24" height="24" viewBox="0 0 24 24" fill="none" xmlns="http://www.w3.org/2000/svg">
<path fill-rule="evenodd" clip-rule="evenodd" d="M21.75 12.0002C21.75 12.1991 21.671 12.3898 21.5303 12.5305C21.3897 12.6711 21.1989 12.7502 21 12.7502L4.81 12.7502L11.03 18.9702C11.1037 19.0388 11.1628 19.1216 11.2038 19.2136C11.2448 19.3056 11.2668 19.4049 11.2686 19.5056C11.2704 19.6063 11.2518 19.7064 11.2141 19.7998C11.1764 19.8931 11.1203 19.978 11.049 20.0492C10.9778 20.1204 10.893 20.1766 10.7996 20.2143C10.7062 20.252 10.6062 20.2705 10.5055 20.2687C10.4048 20.267 10.3055 20.2449 10.2135 20.2039C10.1215 20.1629 10.0387 20.1038 9.97 20.0302L2.47 12.5302C2.32955 12.3895 2.25066 12.1989 2.25066 12.0002C2.25066 11.8014 2.32955 11.6108 2.47 11.4702L9.97 3.97015C10.0387 3.89647 10.1215 3.83736 10.2135 3.79637C10.3055 3.75538 10.4048 3.73334 10.5055 3.73156C10.6062 3.72978 10.7062 3.74831 10.7996 3.78603C10.893 3.82375 10.9778 3.8799 11.049 3.95111C11.1203 4.02233 11.1764 4.10717 11.2141 4.20056C11.2518 4.29394 11.2704 4.39397 11.2686 4.49468C11.2668 4.59538 11.2448 4.69469 11.2038 4.78669C11.1628 4.87869 11.1037 4.96149 11.03 5.03015L4.81 11.2502L21 11.2502C21.1989 11.2502 21.3897 11.3292 21.5303 11.4698C21.671 11.6105 21.75 11.8012 21.75 12.0002Z" fill="white"/>
</svg>
