<svg width="171" height="40" viewBox="0 0 171 40" fill="none" xmlns="http://www.w3.org/2000/svg">
<path d="M170.255 3.93429C170.383 4.62857 170.435 6.04286 170.435 6.91714C170.435 7.76572 170.383 9.10286 170.28 9.87429C169.818 12.8314 168.3 14.0657 164.313 14.0657H154.36V17.9743H149.576V0H164.313C167.888 0 169.689 1.08 170.255 3.93429ZM165.497 8.28V5.55429C165.497 4.65429 164.776 3.93429 163.876 3.93429H154.36V9.9H163.876C164.776 9.9 165.497 9.18 165.497 8.28Z" fill="url(#paint0_linear_351_431)"/>
<path d="M137.761 0H145.477V17.9743H140.693V4.16572L133.414 17.9743H132L124.721 4.16572V17.9743H119.937V0H127.653L132.694 9.77143L137.761 0Z" fill="url(#paint1_linear_351_431)"/>
<path d="M109.67 0C114.685 0 116.254 2.31429 116.254 7.25143V11.0057C116.254 16.1229 114.016 17.9743 109.001 17.9743H102.314C97.2983 17.9743 95.0864 16.1229 95.0864 11.0057V7.25143C95.0864 2.31429 96.6553 0 101.671 0H109.67ZM111.316 11.2629V6.99429C111.316 5.09143 110.699 3.93429 108.924 3.93429H102.417C100.642 3.93429 100.025 5.09143 100.025 6.99429V11.2629C100.025 13.5771 100.771 14.0657 102.442 14.0657H108.898C110.57 14.0657 111.316 13.5771 111.316 11.2629Z" fill="url(#paint2_linear_351_431)"/>
<path d="M88.1113 17.9743L83.2759 11.0829H77.9775V17.9743H73.1935V0H77.9775V6.91714H82.9929L87.7255 0H93.5382L87.2111 8.82L94.0526 17.9743H88.1113Z" fill="url(#paint3_linear_351_431)"/>
<path d="M62.9262 0C67.9416 0 69.5105 2.31429 69.5105 7.25143V11.0057C69.5105 16.1229 67.2729 17.9743 62.2574 17.9743H55.5702C50.5547 17.9743 48.3428 16.1229 48.3428 11.0057V7.25143C48.3428 2.31429 49.9117 0 54.9272 0H62.9262ZM64.5723 11.2629V6.99429C64.5723 5.09143 63.955 3.93429 62.1803 3.93429H55.673C53.8983 3.93429 53.2811 5.09143 53.2811 6.99429V11.2629C53.2811 13.5771 54.0269 14.0657 55.6988 14.0657H62.1545C63.8264 14.0657 64.5723 13.5771 64.5723 11.2629Z" fill="url(#paint4_linear_351_431)"/>
<path d="M44.9702 9.87429C44.6873 11.7257 43.9671 12.9086 42.5011 13.5257L45.1245 18H39.6976L37.4085 14.0657H29.0494V17.9743H24.2654V0H39.0031C42.5782 0 44.3786 1.08 44.9445 3.93429C45.0731 4.62857 45.1245 6.04286 45.1245 6.91714C45.1245 7.76572 45.0988 9.10286 44.9702 9.87429ZM29.0494 3.93429V9.9H38.5659C39.4661 9.9 40.1862 9.15429 40.1862 8.28V5.55429C40.1862 4.65429 39.4661 3.93429 38.5659 3.93429H29.0494Z" fill="url(#paint5_linear_351_431)"/>
<path d="M20.6804 3.93429C20.809 4.62857 20.8604 6.04286 20.8604 6.91714C20.8604 7.76572 20.809 9.10286 20.7061 9.87429C20.2431 12.8314 18.7257 14.0657 14.739 14.0657H4.78527V17.9743H0.0013003V0H14.739C18.3141 0 20.1145 1.08 20.6804 3.93429ZM15.9221 8.28V5.55429C15.9221 4.65429 15.202 3.93429 14.3018 3.93429H4.78527V9.9H14.3018C15.202 9.9 15.9221 9.18 15.9221 8.28Z" fill="url(#paint6_linear_351_431)"/>
<path d="M0 22H170.433V25.3333L85.2167 40L0 25.3333V22Z" fill="url(#paint7_linear_351_431)"/>
<defs>
<linearGradient id="paint0_linear_351_431" x1="0" y1="0" x2="170.458" y2="39.8964" gradientUnits="userSpaceOnUse">
<stop stop-color="#51B6E2"/>
<stop offset="1" stop-color="#0B709C"/>
</linearGradient>
<linearGradient id="paint1_linear_351_431" x1="0" y1="0" x2="170.458" y2="39.8964" gradientUnits="userSpaceOnUse">
<stop stop-color="#51B6E2"/>
<stop offset="1" stop-color="#0B709C"/>
</linearGradient>
<linearGradient id="paint2_linear_351_431" x1="0" y1="0" x2="170.458" y2="39.8964" gradientUnits="userSpaceOnUse">
<stop stop-color="#51B6E2"/>
<stop offset="1" stop-color="#0B709C"/>
</linearGradient>
<linearGradient id="paint3_linear_351_431" x1="0" y1="0" x2="170.458" y2="39.8964" gradientUnits="userSpaceOnUse">
<stop stop-color="#51B6E2"/>
<stop offset="1" stop-color="#0B709C"/>
</linearGradient>
<linearGradient id="paint4_linear_351_431" x1="0" y1="0" x2="170.458" y2="39.8964" gradientUnits="userSpaceOnUse">
<stop stop-color="#51B6E2"/>
<stop offset="1" stop-color="#0B709C"/>
</linearGradient>
<linearGradient id="paint5_linear_351_431" x1="0" y1="0" x2="170.458" y2="39.8964" gradientUnits="userSpaceOnUse">
<stop stop-color="#51B6E2"/>
<stop offset="1" stop-color="#0B709C"/>
</linearGradient>
<linearGradient id="paint6_linear_351_431" x1="0" y1="0" x2="170.458" y2="39.8964" gradientUnits="userSpaceOnUse">
<stop stop-color="#51B6E2"/>
<stop offset="1" stop-color="#0B709C"/>
</linearGradient>
<linearGradient id="paint7_linear_351_431" x1="0" y1="0" x2="170.458" y2="39.8964" gradientUnits="userSpaceOnUse">
<stop stop-color="#51B6E2"/>
<stop offset="1" stop-color="#0B709C"/>
</linearGradient>
</defs>
</svg>
