<svg width="24" height="24" viewBox="0 0 24 24" fill="none" xmlns="http://www.w3.org/2000/svg">
<path fill-rule="evenodd" clip-rule="evenodd" d="M2.25 11.9998C2.25 11.8009 2.32902 11.6102 2.46967 11.4695C2.61032 11.3289 2.80109 11.2498 3 11.2498L19.19 11.2498L12.97 5.02985C12.8963 4.96118 12.8372 4.87838 12.7962 4.78639C12.7552 4.69439 12.7332 4.59507 12.7314 4.49437C12.7296 4.39366 12.7482 4.29364 12.7859 4.20025C12.8236 4.10686 12.8797 4.02203 12.951 3.95081C13.0222 3.87959 13.107 3.82344 13.2004 3.78572C13.2938 3.748 13.3938 3.72948 13.4945 3.73125C13.5952 3.73303 13.6945 3.75507 13.7865 3.79606C13.8785 3.83706 13.9613 3.89616 14.03 3.96984L21.53 11.4698C21.6704 11.6105 21.7493 11.8011 21.7493 11.9998C21.7493 12.1986 21.6704 12.3892 21.53 12.5298L14.03 20.0298C13.9613 20.1035 13.8785 20.1626 13.7865 20.2036C13.6945 20.2446 13.5952 20.2667 13.4945 20.2684C13.3938 20.2702 13.2938 20.2517 13.2004 20.214C13.107 20.1762 13.0222 20.1201 12.951 20.0489C12.8797 19.9777 12.8236 19.8928 12.7859 19.7994C12.7482 19.7061 12.7296 19.606 12.7314 19.5053C12.7332 19.4046 12.7552 19.3053 12.7962 19.2133C12.8372 19.1213 12.8963 19.0385 12.97 18.9698L19.19 12.7498L3 12.7498C2.80109 12.7498 2.61032 12.6708 2.46967 12.5302C2.32902 12.3895 2.25 12.1988 2.25 11.9998Z" fill="white"/>
</svg>
